<?xml version="1.0" encoding="UTF-8" standalone="no"?>
<svg style="enable-background:new" xmlns="http://www.w3.org/2000/svg" height="512" viewBox="0 0 512 512" width="512" version="1.1" xmlns:xlink="http://www.w3.org/1999/xlink">
 <defs>
  <linearGradient id="b">
   <stop style="stop-color:#ff9169" offset="0"/>
   <stop style="stop-color:#ff9069;stop-opacity:0" offset="1"/>
  </linearGradient>
  <linearGradient id="a">
   <stop style="stop-color:#fed965" offset="0"/>
   <stop style="stop-color:#fed965;stop-opacity:0" offset="1"/>
  </linearGradient>
  <linearGradient id="z" y2="478.3" gradientUnits="userSpaceOnUse" x2="475.4" y1="41.65" x1="34">
   <stop style="stop-color:#ef1e5f" offset="0"/>
   <stop style="stop-color:#f1374c" offset=".4827"/>
   <stop style="stop-color:#ff725b" offset="1"/>
  </linearGradient>
  <linearGradient id="y" y2="192" xlink:href="#b" gradientUnits="userSpaceOnUse" x2="456" y1="368" x1="456"/>
  <linearGradient id="x" y2="128" xlink:href="#b" gradientUnits="userSpaceOnUse" x2="416" y1="336" x1="416"/>
  <linearGradient id="w" y2="96" xlink:href="#b" gradientUnits="userSpaceOnUse" x2="376" y1="304" x1="376"/>
  <linearGradient id="v" y2="72" xlink:href="#b" gradientUnits="userSpaceOnUse" x2="296" y1="280" x1="296"/>
  <linearGradient id="u" y2="184" xlink:href="#b" gradientUnits="userSpaceOnUse" x2="56" y1="360" x1="56"/>
  <linearGradient id="t" y2="162.4" xlink:href="#b" gradientUnits="userSpaceOnUse" x2="96.8" y1="352" x1="96.8"/>
  <linearGradient id="s" y2="80" xlink:href="#b" gradientUnits="userSpaceOnUse" x2="136" y1="312" x1="136"/>
  <linearGradient id="r" y2="136" xlink:href="#b" gradientUnits="userSpaceOnUse" x2="176" y1="264" x1="177.6"/>
  <linearGradient id="q" y2="-32" xlink:href="#b" gradientUnits="userSpaceOnUse" x2="218" y1="326.1" x1="216"/>
  <linearGradient id="p" y2="72" xlink:href="#b" gradientUnits="userSpaceOnUse" x2="288" y1="296" x1="288"/>
  <linearGradient id="o" y2="400" xlink:href="#a" gradientUnits="userSpaceOnUse" x2="256" y1="232" x1="256"/>
  <linearGradient id="n" y2="472" xlink:href="#a" gradientUnits="userSpaceOnUse" x2="256" gradientTransform="translate(-40)" y1="232" x1="256"/>
  <linearGradient id="m" y2="400" xlink:href="#a" gradientUnits="userSpaceOnUse" x2="256" gradientTransform="translate(-80)" y1="200" x1="256"/>
  <linearGradient id="k" y2="368" xlink:href="#a" gradientUnits="userSpaceOnUse" x2="256" gradientTransform="translate(-120)" y1="152" x1="256"/>
  <linearGradient id="j" y2="408" xlink:href="#a" gradientUnits="userSpaceOnUse" x2="256" gradientTransform="translate(-160)" y1="112" x1="256"/>
  <linearGradient id="i" y2="312" xlink:href="#a" gradientUnits="userSpaceOnUse" x2="256" gradientTransform="translate(-200)" y1="160" x1="256"/>
  <linearGradient id="h" y2="544" xlink:href="#a" gradientUnits="userSpaceOnUse" x2="256" gradientTransform="translate(40)" y1="160" x1="256"/>
  <linearGradient id="g" y2="456" xlink:href="#a" gradientUnits="userSpaceOnUse" x2="256" gradientTransform="translate(80)" y1="208" x1="256"/>
  <linearGradient id="f" y2="368" xlink:href="#a" gradientUnits="userSpaceOnUse" x2="256" gradientTransform="translate(120)" y1="176" x1="256"/>
  <linearGradient id="e" y2="376" xlink:href="#a" gradientUnits="userSpaceOnUse" x2="256" gradientTransform="translate(160)" y1="185.9" x1="256"/>
  <linearGradient id="d" y2="352" xlink:href="#a" gradientUnits="userSpaceOnUse" x2="256" gradientTransform="translate(200)" y1="128" x1="256"/>
  <linearGradient id="l" y2="281" gradientUnits="userSpaceOnUse" x2="-251.8" gradientTransform="translate(458,-32)" y1="281" x1="-126.6">
   <stop style="stop-color:#ef5145;stop-opacity:0" offset="0"/>
   <stop style="stop-color:#ef5145" offset="1"/>
  </linearGradient>
  <radialGradient id="c" spreadMethod="reflect" gradientUnits="userSpaceOnUse" cy="256.7" cx="240" gradientTransform="matrix(.8058 -1.575 1.08 .5523 -230.5 492.9)" r="129.3">
   <stop offset="0"/>
   <stop style="stop-opacity:0" offset="1"/>
  </radialGradient>
 </defs>
 <path style="color:#000000;enable-background:accumulate;fill:url(#z)" d="m0 0v512h512v-512z"/>
 <path style="opacity:.1;color:#000000;enable-background:accumulate;fill:#fff" d="m0 256v72.1 183.9h512v-183.9-72.1h-512z"/>
 <g style="opacity:.5">
  <path d="m272 72v16h32v-16zm0 24v16h32v-16zm0 24v16h32v-16zm0 24v16h32v-16zm0 24v16h32v-16zm0 24v16h32v-16zm0 24v16h32v-16zm0 24v16h32v-16zm0 24v16h32v-16z" style="opacity:1;color:#000000;enable-background:accumulate;fill:url(#p)" transform="translate(-32,-32)"/>
  <path style="opacity:1;color:#000000;enable-background:accumulate;fill:url(#q)" d="m200 40v16h32v-16zm0 24v16h32v-16zm0 24v16h32v-16zm0 24v16h32v-16zm0 24v16h32v-16zm0 24v16h32v-16zm0 24v16h32v-16zm0 24v16h32v-16zm0 24v16h32v-16z"/>
  <path style="opacity:1;color:#000000;enable-background:accumulate;fill:url(#r)" d="m160 40v16h32v-16zm0 24v16h32v-16zm0 24v16h32v-16zm0 24v16h32v-16zm0 24v16h32v-16zm0 24v16h32v-16zm0 24v16h32v-16zm0 24v16h32v-16zm0 24v16h32v-16z"/>
  <path style="opacity:1;color:#000000;enable-background:accumulate;fill:url(#s)" d="m120 40v16h32v-16zm0 24v16h32v-16zm0 24v16h32v-16zm0 24v16h32v-16zm0 24v16h32v-16zm0 24v16h32v-16zm0 24v16h32v-16zm0 24v16h32v-16zm0 24v16h32v-16z"/>
  <path style="opacity:1;color:#000000;enable-background:accumulate;fill:url(#t)" d="m80 40v16h32v-16zm0 24v16h32v-16zm0 24v16h32v-16zm0 24v16h32v-16zm0 24v16h32v-16zm0 24v16h32v-16zm0 24v16h32v-16zm0 24v16h32v-16zm0 24v16h32v-16z"/>
  <path style="opacity:1;color:#000000;enable-background:accumulate;fill:url(#u)" d="m40 40v16h32v-16zm0 24v16h32v-16zm0 24v16h32v-16zm0 24v16h32v-16zm0 24v16h32v-16zm0 24v16h32v-16zm0 24v16h32v-16zm0 24v16h32v-16zm0 24v16h32v-16z"/>
  <path style="opacity:1;color:#000000;enable-background:accumulate;fill:url(#v)" d="m280 40v16h32v-16zm0 24v16h32v-16zm0 24v16h32v-16zm0 24v16h32v-16zm0 24v16h32v-16zm0 24v16h32v-16zm0 24v16h32v-16zm0 24v16h32v-16zm0 24v16h32v-16z"/>
  <path style="opacity:1;color:#000000;enable-background:accumulate;fill:url(#w)" d="m360 40v16h32v-16zm0 24v16h32v-16zm0 24v16h32v-16zm0 24v16h32v-16zm0 24v16h32v-16zm0 24v16h32v-16zm0 24v16h32v-16zm0 24v16h32v-16zm0 24v16h32v-16z"/>
  <path style="opacity:1;color:#000000;enable-background:accumulate;fill:url(#x)" d="m400 40v16h32v-16zm0 24v16h32v-16zm0 24v16h32v-16zm0 24v16h32v-16zm0 24v16h32v-16zm0 24v16h32v-16zm0 24v16h32v-16zm0 24v16h32v-16zm0 24v16h32v-16z"/>
  <path style="opacity:1;color:#000000;enable-background:accumulate;fill:url(#y)" d="m440 40v16h32v-16zm0 24v16h32v-16zm0 24v16h32v-16zm0 24v16h32v-16zm0 24v16h32v-16zm0 24v16h32v-16zm0 24v16h32v-16zm0 24v16h32v-16zm0 24v16h32v-16z"/>
 </g>
 <g style="opacity:.5">
  <path style="opacity:.4670;color:#000000;enable-background:accumulate;fill:url(#o)" d="m240 264v16h32v-16zm0 24v16h32v-16zm0 24v16h32v-16zm0 24v16h32v-16zm0 24v16h32v-16zm0 24v16h32v-16zm0 24v16h32v-16zm0 24v16h32v-16zm0 24v16h32v-16z"/>
  <path style="opacity:.4670;color:#000000;enable-background:accumulate;fill:url(#n)" d="m200 264v16h32v-16zm0 24v16h32v-16zm0 24v16h32v-16zm0 24v16h32v-16zm0 24v16h32v-16zm0 24v16h32v-16zm0 24v16h32v-16zm0 24v16h32v-16zm0 24v16h32v-16z"/>
  <path style="opacity:.4670;color:#000000;enable-background:accumulate;fill:url(#m)" d="m160 264v16h32v-16zm0 24v16h32v-16zm0 24v16h32v-16zm0 24v16h32v-16zm0 24v16h32v-16zm0 24v16h32v-16zm0 24v16h32v-16zm0 24v16h32v-16zm0 24v16h32v-16z"/>
  <path style="opacity:.4670;color:#000000;enable-background:accumulate;fill:url(#k)" d="m120 264v16h32v-16zm0 24v16h32v-16zm0 24v16h32v-16zm0 24v16h32v-16zm0 24v16h32v-16zm0 24v16h32v-16zm0 24v16h32v-16zm0 24v16h32v-16zm0 24v16h32v-16z"/>
  <path style="opacity:.4670;color:#000000;enable-background:accumulate;fill:url(#j)" d="m80 264v16h32v-16zm0 24v16h32v-16zm0 24v16h32v-16zm0 24v16h32v-16zm0 24v16h32v-16zm0 24v16h32v-16zm0 24v16h32v-16zm0 24v16h32v-16zm0 24v16h32v-16z"/>
  <path style="opacity:.4670;color:#000000;enable-background:accumulate;fill:url(#i)" d="m40 264v16h32v-16zm0 24v16h32v-16zm0 24v16h32v-16zm0 24v16h32v-16zm0 24v16h32v-16zm0 24v16h32v-16zm0 24v16h32v-16zm0 24v16h32v-16zm0 24v16h32v-16z"/>
  <path style="opacity:.4670;color:#000000;enable-background:accumulate;fill:url(#h)" d="m280 264v16h32v-16zm0 24v16h32v-16zm0 24v16h32v-16zm0 24v16h32v-16zm0 24v16h32v-16zm0 24v16h32v-16zm0 24v16h32v-16zm0 24v16h32v-16zm0 24v16h32v-16z"/>
  <path style="opacity:.4670;color:#000000;enable-background:accumulate;fill:url(#g)" d="m320 264v16h32v-16zm0 24v16h32v-16zm0 24v16h32v-16zm0 24v16h32v-16zm0 24v16h32v-16zm0 24v16h32v-16zm0 24v16h32v-16zm0 24v16h32v-16zm0 24v16h32v-16z"/>
  <path style="opacity:.4670;color:#000000;enable-background:accumulate;fill:url(#f)" d="m360 264v16h32v-16zm0 24v16h32v-16zm0 24v16h32v-16zm0 24v16h32v-16zm0 24v16h32v-16zm0 24v16h32v-16zm0 24v16h32v-16zm0 24v16h32v-16zm0 24v16h32v-16z"/>
  <path style="opacity:.4670;color:#000000;enable-background:accumulate;fill:url(#e)" d="m400 264v16h32v-16zm0 24v16h32v-16zm0 24v16h32v-16zm0 24v16h32v-16zm0 24v16h32v-16zm0 24v16h32v-16zm0 24v16h32v-16zm0 24v16h32v-16zm0 24v16h32v-16z"/>
  <path style="opacity:.4670;color:#000000;enable-background:accumulate;fill:url(#d)" d="m440 264v16h32v-16zm0 24v16h32v-16zm0 24v16h32v-16zm0 24v16h32v-16zm0 24v16h32v-16zm0 24v16h32v-16zm0 24v16h32v-16zm0 24v16h32v-16zm0 24v16h32v-16z"/>
 </g>
 <g>
  <path d="m354.4 99.94c-3.966-0.0441-9.24 0.5761-16.26 1.63l-119.7 18.77c-28.18 6.002-28.18 7.868-28.18 31.68v195.1c-2.079-1.456-4.132-2.921-6.281-4.362v0.007c-8.955-6.001-18.5-10.27-31.32-10.27-16.06 0-25.64 6.149-31.43 14.25-5.796 8.098-7.719 18.31-7.719 26.2 0 9.515 3.251 19.67 10.3 27.41 7.048 7.739 17.88 13.16 33.46 13.16 17.59 0 29.97-4.915 36.96-14.51 5.508-7.554 8.551-17.64 9.638-30.09v-0.0348c0.1522-1.51 0.2616-3.059 0.3577-4.657 0.1476-2.461 0.117-7.065 0.117-7.065v-148.1c0-21.13-0.00098-22.4 28.19-27.21l91.5-13.94c28.24-3.697 28.25-1.108 28.25 14.74v136.1c-2.079-1.456-4.132-2.921-6.281-4.362v0.007c-8.955-6.001-18.5-10.27-31.32-10.27-16.06 0-25.64 6.149-31.43 14.25-5.796 8.098-7.719 18.31-7.719 26.2 0 9.515 3.251 19.67 10.3 27.41 7.048 7.739 17.88 13.16 33.46 13.16 17.59 0 29.97-4.915 36.96-14.51 5.508-7.554 8.551-17.64 9.638-30.09v-0.0347c0.1521-1.51 0.2617-3.059 0.3577-4.657 0.1476-2.461 0.117-7.065 0.117-7.065v-204.2c0-18.54-0.1202-24.67-12.02-24.81z" style="opacity:0.09;enable-background:new;fill:url(#c)"/>
  <path d="m348.4 106.2c-3.757-0.0418-8.754 0.5458-15.4 1.545l-113.4 17.79c-26.7 5.686-26.7 7.453-26.7 30.01v184.9c-1.97-1.379-3.914-2.767-5.95-4.132v0.007c-8.483-5.685-17.52-9.73-29.67-9.73-15.21 0-24.29 5.825-29.78 13.5-5.491 7.672-7.312 17.34-7.312 24.82 0 9.014 3.08 18.63 9.756 25.96 6.676 7.331 16.94 12.47 31.7 12.47 16.67 0 28.39-4.656 35.02-13.74 5.218-7.156 8.101-16.71 9.13-28.51v-0.033c0.1442-1.431 0.2478-2.898 0.3389-4.412 0.1398-2.331 0.1108-6.693 0.1108-6.693v-140.3c0-20.02-0.001-21.22 26.71-25.78l86.68-13.21c26.76-3.502 26.76-1.049 26.76 13.97v129c-1.97-1.379-3.914-2.767-5.95-4.132v0.007c-8.483-5.685-17.52-9.73-29.67-9.73-15.21 0-24.29 5.825-29.78 13.5-5.491 7.672-7.312 17.34-7.312 24.82 0 9.014 3.08 18.63 9.756 25.96 6.676 7.331 16.94 12.47 31.7 12.47 16.67 0 28.39-4.656 35.02-13.74 5.218-7.156 8.101-16.71 9.13-28.51v-0.0329c0.1441-1.431 0.2479-2.898 0.3389-4.412 0.1398-2.331 0.1108-6.693 0.1108-6.693v-193.5c0-17.56-0.1139-23.38-11.39-23.5z" style="enable-background:new;fill:#fef8f8"/>
  <path style="opacity:.1;enable-background:new;fill:url(#l)" d="m196.1 134.4c-3.183 3.976-3.189 10.04-3.189 21.14v184.9c-1.97-1.379-3.913-2.768-5.949-4.133v0.008c-8.483-5.685-17.52-9.73-29.67-9.73-15.21 0-24.29 5.824-29.78 13.5-5.491 7.672-7.311 17.34-7.311 24.82 0 9.014 3.08 18.63 9.756 25.96 6.676 7.331 16.94 12.47 31.7 12.47 16.67 0 28.39-4.658 35.02-13.75 5.218-7.156 8.101-16.71 9.131-28.51v-0.0313c0.1442-1.431 0.2469-2.898 0.3379-4.412 0.1398-2.331 0.1113-6.693 0.1113-6.693v-140.3c0-20.02-0.00099-21.22 26.71-25.78l86.68-13.21c26.76-3.502 26.76-1.051 26.76 13.96v129c-1.97-1.379-3.913-2.766-5.949-4.131v0.008c-8.483-5.685-17.52-9.73-29.67-9.73-15.21 0-24.28 5.824-29.78 13.5-5.491 7.672-7.312 17.34-7.312 24.82 0 9.014 3.08 18.63 9.756 25.96 6.676 7.331 16.94 12.47 31.7 12.47 16.67 0 28.39-4.656 35.02-13.74 5.218-7.156 8.101-16.71 9.131-28.51v-0.0332c0.1441-1.431 0.2469-2.898 0.3379-4.412 0.1398-2.331 0.1113-6.693 0.1113-6.693v-152.9z"/>
  <path style="enable-background:new;fill:#fff" d="m348.4 106.2c-3.757-0.0418-8.754 0.5462-15.4 1.545l-113.4 17.79c-26.7 5.686-26.7 7.454-26.7 30.01v2c0-22.56 0.00058-24.33 26.7-30.01l113.4-17.79c6.646-0.9988 11.64-1.587 15.4-1.545 11.27 0.1256 11.38 5.943 11.38 23.5v-2c0-17.56-0.1133-23.38-11.38-23.5zm-37.58 193.6c-15.21 0-24.28 5.824-29.78 13.5-5.491 7.672-7.312 17.34-7.312 24.82 0 0.3948 0.0135 0.7926 0.0254 1.189 0.1251-7.357 1.988-16.6 7.287-24.01 5.491-7.672 14.56-13.5 29.78-13.5 12.14 0.00004 21.18 4.046 29.67 9.73v-0.008c2.036 1.364 3.979 2.752 5.949 4.131v-2c-1.97-1.379-3.913-2.766-5.949-4.131v0.008c-8.483-5.685-17.52-9.73-29.67-9.73zm-153.5 26.69c-15.21 0-24.29 5.824-29.78 13.5-5.491 7.672-7.311 17.34-7.311 24.82 0 0.3946 0.0135 0.7908 0.0254 1.188 0.1253-7.357 1.986-16.6 7.285-24.01 5.491-7.672 14.57-13.5 29.78-13.5 12.14 0.00003 21.18 4.046 29.67 9.73v-0.008c2.036 1.364 3.979 2.754 5.949 4.133v-2c-1.97-1.379-3.913-2.768-5.949-4.133v0.008c-8.483-5.685-17.52-9.73-29.67-9.73z"/>
 </g>
</svg>
