<?xml version="1.0" encoding="UTF-8" standalone="no"?>
<svg style="enable-background:new" xmlns="http://www.w3.org/2000/svg" height="512" viewBox="0 0 512 512" width="512" version="1.1" xmlns:xlink="http://www.w3.org/1999/xlink">
 <defs>
  <linearGradient id="b">
   <stop style="stop-color:#e7b108" offset="0"/>
   <stop style="stop-opacity:.043" offset="1"/>
  </linearGradient>
  <linearGradient id="f" y2="573.3" xlink:href="#c" gradientUnits="userSpaceOnUse" y1="305.9" gradientTransform="matrix(.7487 0 0 .7487 73.7 75.16)" x2="317" x1="317"/>
  <linearGradient id="c">
   <stop style="stop-color:#fff" offset="0"/>
   <stop style="stop-color:#fff;stop-opacity:0" offset="1"/>
  </linearGradient>
  <linearGradient id="g" y2="524" xlink:href="#c" gradientUnits="userSpaceOnUse" y1="358.6" gradientTransform="translate(32,52)" x2="296.9" x1="247.2"/>
  <linearGradient id="j" y2="494" gradientUnits="userSpaceOnUse" y1="18" x2="512">
   <stop style="stop-color:#0b7de7" offset="0"/>
   <stop style="stop-color:#93c8fa" offset="1"/>
  </linearGradient>
  <linearGradient id="i" y2="459.8" gradientUnits="userSpaceOnUse" x2="460.6" gradientTransform="matrix(1.033 0 0 1.033 -8.403 -8.468)" y1="58.24" x1="58.3">
   <stop style="stop-opacity:0" offset="0"/>
   <stop style="stop-opacity:.3841" offset=".5048"/>
   <stop style="stop-opacity:0" offset="1"/>
  </linearGradient>
  <clipPath id="l" clipPathUnits="userSpaceOnUse">
   <path style="color:#000000;enable-background:accumulate;fill:#fac82e" d="m545.4 104.4-23.5 40.6h-46.9v46.9l-40.6 23.5 23.5 40.6-23.45 40.62 70.35 40.62 40.62 70.35 40.6-23.5 40.6 23.5 40.6-70.4 70.4-40.6-23.5-40.6 23.5-40.6-70.4-40.6-40.6-70.4-40.6 23.5z"/>
  </clipPath>
  <clipPath id="k" clipPathUnits="userSpaceOnUse">
   <path style="color:#000000;enable-background:accumulate;fill:#fac82e" d="m215.4 104.4-23.5 40.6h-46.9v46.9l-40.6 23.5 23.5 40.6-23.45 40.62 70.35 40.62 40.62 70.35 40.6-23.5 40.6 23.5 40.6-70.4 70.4-40.6-23.5-40.6 23.5-40.6-70.4-40.6-40.6-70.4-40.6 23.5z"/>
  </clipPath>
  <linearGradient id="h" y2="409.6" gradientUnits="userSpaceOnUse" x2="407.6" y1="106.4" x1="104.4">
   <stop style="stop-opacity:0" offset="0"/>
   <stop offset=".5048"/>
   <stop style="stop-opacity:0" offset="1"/>
  </linearGradient>
  <radialGradient id="a" xlink:href="#b" gradientUnits="userSpaceOnUse" cy="316.5" cx="311" gradientTransform="matrix(.4380 .008265 -.01352 .7165 179.1 87.14)" r="86.01"/>
  <radialGradient id="e" gradientUnits="userSpaceOnUse" cy="256" cx="586" gradientTransform="matrix(1.775 -.02177 .02358 1.922 -460.1 -223.4)" r="111">
   <stop style="stop-color:#e7b108" offset="0"/>
   <stop style="stop-opacity:.8870" offset="1"/>
  </radialGradient>
  <radialGradient id="d" xlink:href="#b" gradientUnits="userSpaceOnUse" cy="256" cx="586" gradientTransform="translate(0 .00001153)" r="111"/>
 </defs>
 <path style="color:#000000;enable-background:accumulate;fill:url(#j)" d="m0 0v183.9 144.2 183.9h512v-183.9-144.2-183.9h-512z"/>
 <path style="opacity:.1;color:#000000;enable-background:accumulate;fill:#fff" d="m512 0.7383l-511.3 511.3h511.3v-183.9-144.2-183.2z"/>
 <path style="opacity:.2;color:#000000;enable-background:accumulate;fill:url(#g)" d="m534.1 311.1c-23.98 0.0142-44.7 16.75-49.76 40.19-0.788 1.03-1.537 2.088-2.246 3.174-2.997-1.208-6.198-1.833-9.43-1.84-13.58 0.0164-24.74 10.72-25.32 24.28-13.35 2.031-26.55 4.921-39.53 8.652-6.23-18.83-23.82-31.54-43.65-31.56-24.28 0.028-44.36 18.92-45.88 43.15-3.204-0.6404-6.463-0.9642-9.73-0.9668-27.53 0.00041-49.85 22.32-49.85 49.85 0.0156 8.748 2.333 17.34 6.719 24.91-8.178 8.382-15.88 17.21-23.07 26.46-16.58-12.75-34.6-23.51-53.68-32.07-1.342-19.88-17.86-35.32-37.78-35.32-2.459 0.0117-4.912 0.2628-7.322 0.75-5.184-18.67-22.18-31.59-41.55-31.59-23.82 0.00065-43.13 19.31-43.13 43.13 0.0066 0.2344 0.01501 0.4688 0.02539 0.7031-7.12 0.7-19.61 2.5-26.8 3.8v97.3h512v-231.9c-3.253-0.6598-6.563-1-9.883-1.016z" transform="translate(-32,-32)"/>
 <path d="m215.4 106.4-23.5 40.6h-46.9v46.9l-40.6 23.5 23.5 40.6-23.45 40.62 40.62 23.45v46.9h46.9l23.4 40.6 40.6-23.5 40.62 23.45 17.01-29.47h50.9c17.76 0 32.09-14.85 32.5-32.9v-0.002c0.006-0.2624 0.0195-0.5234 0.0195-0.7871 0-3.491-0.5255-6.846-1.5-9.994-0.2436-0.787-0.5159-1.56-0.8144-2.32-0.5971-1.52-1.301-2.984-2.104-4.383-0.4013-0.6994-0.8263-1.381-1.275-2.047-0.4491-0.6657-0.9215-1.315-1.416-1.945-0.989-1.26-2.068-2.444-3.225-3.547-2.682-2.558-5.797-4.654-9.209-6.211l30.1-17.4-23.5-40.6 23.5-40.6-40.6-23.5v-46.9h-46.9l-23.5-40.6-40.6 23.5z" style="opacity:.1;color:#000000;enable-background:accumulate;fill:url(#h)"/>
 <path style="opacity:.145;color:#000000;enable-background:accumulate;fill:url(#i)" d="m214 101.4-24.22 41.95h-48.44v48.44l-41.97 24.2 24.27 42-24.27 42 41.97 24.2v48.44h48.44l24.2 42 42-24.3 41.95 24.22 17.57-30.43h52.56c18.34 0 33.15-15.34 33.57-33.98v-0.002c0.006-0.271 0.0201-0.5406 0.0201-0.813 0-3.605-0.5428-7.071-1.549-10.32-0.2516-0.8128-0.5329-1.612-0.8412-2.396-0.6167-1.57-1.344-3.082-2.173-4.527-0.4144-0.7223-0.8534-1.426-1.317-2.114-0.4638-0.6876-0.9518-1.359-1.462-2.009-1.021-1.301-2.136-2.524-3.33-3.663-2.77-2.642-5.987-4.807-9.511-6.415l31.1-17.9-24.3-42 24.3-42-42-24.2v-48.4h-48.4l-24.2-42-42 24.3z"/>
 <rect style="color:#000000;enable-background:accumulate;fill:#f9c010" transform="rotate(210)" height="111" width="111" y="-204.7" x="-460.7"/>
 <rect style="color:#000000;enable-background:accumulate;fill:#fbcd42" transform="rotate(240)" height="111" width="111" y="-17.27" x="-460.7"/>
 <rect style="color:#000000;enable-background:accumulate;fill:#f9d510" transform="rotate(150)" height="111" width="111" y="-460.7" x="-204.7"/>
 <rect style="color:#000000;enable-background:accumulate;fill:#fbdf42" transform="rotate(120)" height="111" width="111" y="-460.7" x="-17.27"/>
 <rect style="color:#000000;enable-background:accumulate;fill:#ffeb77" transform="rotate(60)" height="111" width="111" y="-204.7" x="238.7"/>
 <rect style="color:#000000;enable-background:accumulate;fill:#ffee90" transform="rotate(30)" height="111" width="111" y="-17.27" x="238.7"/>
 <rect style="color:#000000;enable-background:accumulate;fill:#ffeb77" transform="rotate(-60)" height="111" width="111" y="238.7" x="-204.7"/>
 <rect style="color:#000000;enable-background:accumulate;fill:#ffee90" transform="rotate(-30)" height="111" width="111" y="238.7" x="-17.27"/>
 <rect style="color:#000000;enable-background:accumulate;fill:#fff2af" height="111" width="111" y="145" x="145"/>
 <path style="opacity:.05;fill-opacity:0;color:#000000;enable-background:accumulate" d="m219.3 124-35.19 71.66v59.25c-4.94 5.788-10.34 11.62-15.97 17.25-18.5 18.5-39.25 34.69-53.12 39.31l-23.34-23.5-71.66 35.2v170.7h256v-317.6c-15.4-33.4-32.4-45.9-56.7-52.4zm-97.5 229c0.007-0.005 0.0239 0.005 0.0312 0-2.611 1.63-5.251 3.227-7.906 4.812 2.656-1.586 5.264-3.182 7.875-4.812zm-24.09 14.06c0.008-0.004 0.0234 0.004 0.0312 0-2.742 1.499-5.529 2.981-8.312 4.438 2.784-1.457 5.539-2.939 8.281-4.438z"/>
 <g style="opacity:.151;fill:url(#e)" transform="translate(-334,-4)" clip-path="url(#l)">
  <path d="m586 145a111 111 0 0 0 -110.9 110.3h-0.0329v111.7h110.9v-0.001a111 111 0 0 0 0.0369 0.001 111 111 0 0 0 110.9 -110.3h0.0329v-111.7h-110.9v0.001z" style="color:#000000;enable-background:accumulate;fill:url(#d)"/>
 </g>
 <path d="m256 145a111 111 0 0 0 -110.9 110.3h-0.0329v111.7h110.9v-0.001a111 111 0 0 0 0.0369 0.001 111 111 0 0 0 110.9 -110.3h0.0329v-111.7h-110.9v0.001z" style="color:#000000;enable-background:accumulate;fill:#ffe764"/>
 <g style="opacity:.5020;fill:url(#a)" transform="translate(-4,-4)" clip-path="url(#k)">
  <path d="m317.8 254.8c-23.58 0-43.61 14.55-53.13 35.21-22.14 1.613-39.6 20.74-39.6 43.9 0 24.19 19 44.17 42.56 44.17h96.94c18.01 0 32.52-15.28 32.52-33.69 0-13.96-8.406-25.75-20.34-30.82-1.473-32.5-27.11-58.77-58.95-58.77z" style="enable-background:accumulate;color-rendering:auto;color:#000000;shape-rendering:auto;text-decoration-line:none;image-rendering:auto;text-indent:0;text-transform:none;fill:url(#a)"/>
 </g>
 <path d="m317.8 254.8c-23.58 0-43.61 14.55-53.13 35.21-22.14 1.613-39.6 20.74-39.6 43.9 0 24.19 19 44.17 42.56 44.17h96.94c18.01 0 32.52-15.28 32.52-33.69 0-13.96-8.406-25.75-20.34-30.82-1.473-32.5-27.11-58.77-58.95-58.77z" style="enable-background:accumulate;color-rendering:auto;color:#000000;shape-rendering:auto;text-decoration-line:none;image-rendering:auto;text-indent:0;text-transform:none;fill:#ecf9fe"/>
 <path d="m317.8 254.8c-23.58 0-43.61 14.55-53.13 35.21-22.14 1.613-39.6 20.74-39.6 43.9 0 0.3059 0.0156 0.6076 0.0217 0.9121 0.465-22.73 17.73-41.37 39.58-42.96 9.52-20.66 29.55-35.21 53.13-35.21 31.84 0 57.48 26.27 58.95 58.77 11.63 4.939 19.9 16.26 20.32 29.76 0.006-0.2632 0.0199-0.5248 0.0199-0.7893 0-13.96-8.405-25.75-20.34-30.82-1.473-32.5-27.11-58.77-58.95-58.77z" style="enable-background:accumulate;color-rendering:auto;color:#000000;shape-rendering:auto;text-decoration-line:none;image-rendering:auto;text-indent:0;text-transform:none;fill:url(#f)"/>
 <path d="m288 177a111 111 0 0 0 -110.9 110.3h-0.0332v2.036h0.0332a111 111 0 0 1 110.9 -110.3 111 111 0 0 1 0.0371 0.002v-0.002h110.9v-2h-110.9v0.002z" style="opacity:.4;color:#000000;enable-background:accumulate;fill:#fff" transform="translate(-32,-32)"/>
</svg>
