<?xml version="1.0" encoding="UTF-8" standalone="no"?>
<svg
   xmlns:dc="http://purl.org/dc/elements/1.1/"
   xmlns:cc="http://creativecommons.org/ns#"
   xmlns:rdf="http://www.w3.org/1999/02/22-rdf-syntax-ns#"
   xmlns:svg="http://www.w3.org/2000/svg"
   xmlns="http://www.w3.org/2000/svg"
   version="1.1"
   viewBox="0 0 24 24"
   width="1600"
   height="1600"
   xml:space="preserve"
   id="svg9"><metadata
     id="metadata15"><rdf:RDF><cc:Work
         rdf:about=""><dc:format>image/svg+xml</dc:format><dc:type
           rdf:resource="http://purl.org/dc/dcmitype/StillImage" /><dc:title></dc:title></cc:Work></rdf:RDF></metadata><defs
     id="defs13" /><g
     id="info" /><g
     id="icons"
     style="fill:#ffffff"><g
       id="calendar"
       style="fill:#ffffff"><path
         d="M 18,4 C 18,2.9 17.1,2 16,2 14.9,2 14,2.9 14,4 H 10 C 10,2.9 9.1,2 8,2 6.9,2 6,2.9 6,4 3.8,4 2,5.8 2,8 v 10 c 0,2.2 1.8,4 4,4 h 12 c 2.2,0 4,-1.8 4,-4 V 8 C 22,5.8 20.2,4 18,4 Z m 2,15 c 0,0.6 -0.4,1 -1,1 H 5 C 4.4,20 4,19.6 4,19 v -8 c 0,-0.6 0.4,-1 1,-1 h 14 c 0.6,0 1,0.4 1,1 z"
         id="path3"
         style="fill:#ffffff" /><path
         d="m 13,12 h -2 c -1.1,0 -2,0.9 -2,2 v 2 c 0,1.1 0.9,2 2,2 h 2 c 1.1,0 2,-0.9 2,-2 v -2 c 0,-1.1 -0.9,-2 -2,-2 z"
         id="path5"
         style="fill:#ffffff" /></g></g></svg>
