<?xml version="1.0" encoding="UTF-8" standalone="no"?>
<svg
   xmlns:dc="http://purl.org/dc/elements/1.1/"
   xmlns:cc="http://creativecommons.org/ns#"
   xmlns:rdf="http://www.w3.org/1999/02/22-rdf-syntax-ns#"
   xmlns:svg="http://www.w3.org/2000/svg"
   xmlns="http://www.w3.org/2000/svg"
   xmlns:sodipodi="http://sodipodi.sourceforge.net/DTD/sodipodi-0.dtd"
   xmlns:inkscape="http://www.inkscape.org/namespaces/inkscape"
   width="1600"
   height="1600"
   version="1.1"
   viewBox="0 0 24 24"
   xml:space="preserve"
   id="svg9"
   sodipodi:docname="card.svg"
   inkscape:version="1.0.2 (394de47547, 2021-03-26)"><metadata
     id="metadata15"><rdf:RDF><cc:Work
         rdf:about=""><dc:format>image/svg+xml</dc:format><dc:type
           rdf:resource="http://purl.org/dc/dcmitype/StillImage" /></cc:Work></rdf:RDF></metadata><defs
     id="defs13" /><sodipodi:namedview
     pagecolor="#ffffff"
     bordercolor="#666666"
     borderopacity="1"
     objecttolerance="10"
     gridtolerance="10"
     guidetolerance="10"
     inkscape:pageopacity="0"
     inkscape:pageshadow="2"
     inkscape:window-width="1366"
     inkscape:window-height="636"
     id="namedview11"
     showgrid="false"
     inkscape:zoom="0.12741498"
     inkscape:cx="12"
     inkscape:cy="1293.6432"
     inkscape:window-x="0"
     inkscape:window-y="27"
     inkscape:window-maximized="1"
     inkscape:current-layer="svg9"
     inkscape:document-rotation="0" /><g
     id="info" /><g
     id="icons"
     style="fill:#ffffff"
     transform="matrix(0.70129383,0,0,0.70129383,3.584474,3.584474)"><g
       id="card"
       style="fill:#ffffff"><path
         d="M 20,3 H 4 C 1.8,3 0,4.8 0,7 v 1 c 0,0.6 0.4,1 1,1 h 22 c 0.6,0 1,-0.4 1,-1 V 7 C 24,4.8 22.2,3 20,3 Z"
         id="path3"
         style="fill:#ffffff" /><path
         d="M 23,11 H 1 c -0.6,0 -1,0.4 -1,1 v 5 c 0,2.2 1.8,4 4,4 h 16 c 2.2,0 4,-1.8 4,-4 v -5 c 0,-0.6 -0.4,-1 -1,-1 z M 11,18 H 5 C 4.4,18 4,17.6 4,17 4,16.4 4.4,16 5,16 h 6 c 0.6,0 1,0.4 1,1 0,0.6 -0.4,1 -1,1 z m 8,-3 h -2 c -0.6,0 -1,-0.4 -1,-1 0,-0.6 0.4,-1 1,-1 h 2 c 0.6,0 1,0.4 1,1 0,0.6 -0.4,1 -1,1 z"
         id="path5"
         style="fill:#ffffff" /></g></g></svg>
