<?xml version="1.0" encoding="UTF-8" standalone="no"?>
<svg
   xmlns:dc="http://purl.org/dc/elements/1.1/"
   xmlns:cc="http://creativecommons.org/ns#"
   xmlns:rdf="http://www.w3.org/1999/02/22-rdf-syntax-ns#"
   xmlns:svg="http://www.w3.org/2000/svg"
   xmlns="http://www.w3.org/2000/svg"
   xmlns:sodipodi="http://sodipodi.sourceforge.net/DTD/sodipodi-0.dtd"
   xmlns:inkscape="http://www.inkscape.org/namespaces/inkscape"
   width="1600"
   height="1600"
   version="1.1"
   viewBox="-1 -1 26 26"
   xml:space="preserve"
   id="svg9"
   sodipodi:docname="cart_1564496.svg"
   inkscape:version="1.0.2 (394de47547, 2021-03-26)"><metadata
     id="metadata15"><rdf:RDF><cc:Work
         rdf:about=""><dc:format>image/svg+xml</dc:format><dc:type
           rdf:resource="http://purl.org/dc/dcmitype/StillImage" /></cc:Work></rdf:RDF></metadata><defs
     id="defs13" /><sodipodi:namedview
     pagecolor="#ffffff"
     bordercolor="#666666"
     borderopacity="1"
     objecttolerance="10"
     gridtolerance="10"
     guidetolerance="10"
     inkscape:pageopacity="0"
     inkscape:pageshadow="2"
     inkscape:window-width="789"
     inkscape:window-height="480"
     id="namedview11"
     showgrid="false"
     inkscape:zoom="20.083333"
     inkscape:cx="12"
     inkscape:cy="12"
     inkscape:window-x="0"
     inkscape:window-y="27"
     inkscape:window-maximized="0"
     inkscape:current-layer="svg9" /><g
     id="info" /><g
     id="icons"
     style="fill:#ffffff"><g
       id="cart"
       style="fill:#ffffff"><path
         d="M 20,13 H 4 c -0.7,0 -1.1,0.6 -1,1.2 l 1.4,6.2 c 0.2,0.9 1,1.6 2,1.6 h 11.1 c 1,0 1.8,-0.7 2,-1.6 l 1.4,-6.2 C 21.1,13.6 20.6,13 20,13 Z m -9,5 c 0,0.5 -0.4,1 -1,1 -0.6,0 -1,-0.5 -1,-1 v -2 c 0,-0.5 0.4,-1 1,-1 0.6,0 1,0.5 1,1 z m 4,0 c 0,0.5 -0.4,1 -1,1 -0.6,0 -1,-0.5 -1,-1 v -2 c 0,-0.5 0.4,-1 1,-1 0.6,0 1,0.5 1,1 z"
         id="path3"
         style="fill:#ffffff" /><path
         d="M 21,8 H 18.8 L 16.9,3.2 c -0.4,-1 -1.6,-1.5 -2.6,-1.1 -1,0.4 -1.5,1.6 -1.1,2.6 L 14.5,8 h -5 L 10.8,4.7 C 11.2,3.7 10.7,2.5 9.7,2.1 8.7,1.7 7.5,2.2 7.1,3.2 L 5.2,8 H 3 C 1.9,8 1,8.9 1,10 v 1 c 0,0.6 0.4,1 1,1 h 20 c 0.6,0 1,-0.4 1,-1 V 10 C 23,8.9 22.1,8 21,8 Z"
         id="path5"
         style="fill:#ffffff" /></g></g></svg>
