<?xml version="1.0" encoding="UTF-8" standalone="no"?>
<svg
   xmlns:dc="http://purl.org/dc/elements/1.1/"
   xmlns:cc="http://creativecommons.org/ns#"
   xmlns:rdf="http://www.w3.org/1999/02/22-rdf-syntax-ns#"
   xmlns:svg="http://www.w3.org/2000/svg"
   xmlns="http://www.w3.org/2000/svg"
   xmlns:sodipodi="http://sodipodi.sourceforge.net/DTD/sodipodi-0.dtd"
   xmlns:inkscape="http://www.inkscape.org/namespaces/inkscape"
   width="1600"
   height="1600"
   version="1.1"
   viewBox="-2 -2 28 28"
   xml:space="preserve"
   id="svg22"
   sodipodi:docname="chart_1564498.svg"
   inkscape:version="1.0.2 (394de47547, 2021-03-26)"><metadata
     id="metadata28"><rdf:RDF><cc:Work
         rdf:about=""><dc:format>image/svg+xml</dc:format><dc:type
           rdf:resource="http://purl.org/dc/dcmitype/StillImage" /></cc:Work></rdf:RDF></metadata><defs
     id="defs26" /><sodipodi:namedview
     pagecolor="#ffffff"
     bordercolor="#666666"
     borderopacity="1"
     objecttolerance="10"
     gridtolerance="10"
     guidetolerance="10"
     inkscape:pageopacity="0"
     inkscape:pageshadow="2"
     inkscape:window-width="936"
     inkscape:window-height="480"
     id="namedview24"
     showgrid="false"
     inkscape:zoom="20.083333"
     inkscape:cx="12"
     inkscape:cy="12"
     inkscape:window-x="0"
     inkscape:window-y="27"
     inkscape:window-maximized="0"
     inkscape:current-layer="svg22" /><g
     id="info" /><g
     id="icons"
     style="fill:#ffffff"><g
       id="chart"
       style="fill:#ffffff"><path
         d="M 18.7,14 H 12.5 C 11.1,14 9.9,12.8 9.9,11.4 V 5.3 C 10,4.5 9.4,3.9 8.6,4 3.1,4.8 -1,10 0.2,16 0.9,19.9 4.1,23 8,23.8 13.9,25 19.2,20.9 20,15.4 20.1,14.6 19.5,14 18.7,14 Z"
         id="path16"
         style="fill:#ffffff" /><path
         d="M 24,10.6 C 23.7,7.9 22.5,5.4 20.5,3.4 18.6,1.5 16,0.2 13.3,-0.1 12.6,-0.1 12,0.5 12,1.2 V 11 c 0,0.6 0.5,1 1,1 h 9.8 c 0.7,0 1.3,-0.6 1.2,-1.4 z"
         id="path18"
         style="fill:#ffffff" /></g></g></svg>
