<?xml version="1.0" encoding="UTF-8" standalone="no"?>
<svg style="enable-background:new" xmlns="http://www.w3.org/2000/svg" height="512" width="512" version="1.1" xmlns:xlink="http://www.w3.org/1999/xlink">
 <defs>
  <linearGradient id="c" x1="235.6" gradientUnits="userSpaceOnUse" y1="325.2" gradientTransform="translate(-16 2)" x2="193.3" y2="300.7">
   <stop offset="0"/>
   <stop stop-opacity="0" offset="1"/>
  </linearGradient>
  <linearGradient id="e" x1="320" xlink:href="#a" gradientUnits="userSpaceOnUse" y1="392" gradientTransform="translate(-16,-16)" x2="320" y2="256"/>
  <linearGradient id="a">
   <stop stop-color="#eaeaea" offset="0"/>
   <stop stop-color="#f8f8f8" offset="1"/>
  </linearGradient>
  <linearGradient id="d" x1="188.8" xlink:href="#a" gradientUnits="userSpaceOnUse" y1="392" gradientTransform="translate(-16,-16)" x2="188.8" y2="208"/>
  <linearGradient id="b" x1="272" xlink:href="#a" gradientUnits="userSpaceOnUse" y1="180" gradientTransform="matrix(.8667 0 0 .8667 -475.7 200)" x2="392" y2="180"/>
 </defs>
 <g>
  <rect style="color:#000000;enable-background:accumulate" height="64" width="512" y="376" x="0" fill="#6db430"/>
  <rect style="color:#000000;enable-background:accumulate" fill-opacity=".9961" height="72.52" width="512" y="440" x="0" stroke-width="1.064" fill="#8cc24c"/>
  <path style="color:#000000;enable-background:accumulate" d="m299.8-18-161.8 312h-138v64h194.1l196.7-376z" transform="translate(0,18)" fill="#b6e2f3"/>
  <path style="color:#000000;enable-background:accumulate" d="m210.3-18-128.3 248h-82v64h138.1l163.1-312z" transform="translate(0,18)" fill="#91d7f0"/>
  <path style="color:#000000;enable-background:accumulate" fill="#68c2f0" d="m121.3 0-121.3 234.6v13.4h82l129.3-248z"/>
  <path style="color:#000000;enable-background:accumulate" d="m33.3-18h-33.3v236.5l123.3-236.5z" transform="translate(0,18)" fill="#37a9eb"/>
  <path style="color:#000000;enable-background:accumulate" fill="#fcc942" d="m390.8 0-196.7 376h142l175.9-335.6v-40.4z"/>
  <path style="color:#000000;enable-background:accumulate" transform="translate(0,18)" fill="#b5e3f4" d="m512 22.43-175.9 335.6h89l86.91-165.8v-169.8z"/>
  <path style="color:#000000;enable-background:accumulate" fill="#96d4eb" d="m512 208.3-87.9 167.7h87.9z"/>
 </g>
 <g>
  <path opacity=".2" style="color:#000000;enable-background:accumulate" d="m364 140c-28.72 0.00001-52 23.28-52 52 0.00001 28.72 23.28 52 52 52 28.72-0.00001 52-23.28 52-52-0.00001-28.72-23.28-52-52-52zm-162 56-96 184h232l-70.96-136-20 38.33z" fill="#050000"/>
  <path style="color:#000000;enable-background:accumulate" transform="rotate(-90)" fill="url(#b)" d="m-136 362c0 28.72-23.28 52-52 52s-52-23.28-52-52 23.28-52 52-52 52 23.28 52 52z"/>
  <path style="color:#000000;enable-background:accumulate" fill="url(#d)" d="m104 376 96-184 96 184z"/>
  <path style="color:#000000;enable-background:accumulate" fill="url(#e)" d="m194.1 376 70.95-136 70.96 136z"/>
  <path opacity=".05" style="color:#000000;enable-background:accumulate" fill="url(#c)" d="m200 192-96 184h90.09l50.96-97.67-45.04-86.33z"/>
  <path style="color:#000000;enable-background:accumulate" fill="#fff" d="m362 136c-28.72 0.00001-52 23.28-52 52 0.0114 0.2774 0.0251 0.5548 0.041 0.832 0.64-28.24 23.71-50.81 51.96-50.83 28.38 0.0188 51.5 22.79 51.96 51.17 0.018-0.3892 0.0317-0.7785 0.041-1.168-0.00001-28.72-23.28-52-52-52zm-162 56-96 184h1.043l94.96-182 45.04 86.33 20-38.33 69.91 134h1.043l-70.96-136-20 38.33z"/>
 </g>
 <g fill-opacity=".08118" transform="translate(0 -558.4)" stroke="#00f" display="none" fill="#00f">
  <path d="m166 576.4h179.9c145.3 0 166 20.74 166 165.9v144.2c0 145.2-20.76 165.9-166 165.9h-179.9c-145.3 0-166-20.8-166-165.9v-144.2c0-145.2 20.76-165.9 166-165.9z" display="inline"/>
  <circle style="color:#000000;enable-background:accumulate" stroke-width=".8333" d="M 376,238 A 120,120 0 0 1 256,358 120,120 0 0 1 136,238 120,120 0 0 1 256,118 120,120 0 0 1 376,238 Z" transform="matrix(1.2 0 0 1.2 -51.2 528.8)" display="inline" cy="238" cx="256" r="120"/>
  <rect stroke-linejoin="round" style="color:#000000;enable-background:accumulate" display="inline" height="272" width="272" stroke-linecap="round" y="678.4" x="120"/>
  <rect stroke-linejoin="round" style="color:#000000;enable-background:accumulate" display="inline" height="240" width="304" stroke-linecap="round" y="694.4" x="104"/>
  <rect stroke-linejoin="round" style="color:#000000;enable-background:accumulate" display="inline" height="304" width="240" stroke-linecap="round" y="662.4" x="136"/>
 </g>
</svg>
