<?xml version="1.0" encoding="UTF-8" standalone="no"?>
<svg
   xmlns:dc="http://purl.org/dc/elements/1.1/"
   xmlns:cc="http://creativecommons.org/ns#"
   xmlns:rdf="http://www.w3.org/1999/02/22-rdf-syntax-ns#"
   xmlns:svg="http://www.w3.org/2000/svg"
   xmlns="http://www.w3.org/2000/svg"
   xmlns:sodipodi="http://sodipodi.sourceforge.net/DTD/sodipodi-0.dtd"
   xmlns:inkscape="http://www.inkscape.org/namespaces/inkscape"
   width="1600"
   height="1600"
   version="1.1"
   viewBox="-3 -3 30 30"
   xml:space="preserve"
   id="svg11"
   sodipodi:docname="edit_1564503.svg"
   inkscape:version="1.0.2 (394de47547, 2021-03-26)"><metadata
     id="metadata17"><rdf:RDF><cc:Work
         rdf:about=""><dc:format>image/svg+xml</dc:format><dc:type
           rdf:resource="http://purl.org/dc/dcmitype/StillImage" /></cc:Work></rdf:RDF></metadata><defs
     id="defs15" /><sodipodi:namedview
     pagecolor="#ffffff"
     bordercolor="#666666"
     borderopacity="1"
     objecttolerance="10"
     gridtolerance="10"
     guidetolerance="10"
     inkscape:pageopacity="0"
     inkscape:pageshadow="2"
     inkscape:window-width="936"
     inkscape:window-height="480"
     id="namedview13"
     showgrid="false"
     inkscape:zoom="20.083333"
     inkscape:cx="12"
     inkscape:cy="12"
     inkscape:window-x="0"
     inkscape:window-y="27"
     inkscape:window-maximized="0"
     inkscape:current-layer="svg11" /><g
     id="info" /><g
     id="icons"
     style="fill:#ffffff"><g
       id="edit"
       style="fill:#ffffff"><path
         d="m 2,20 c 0,1.1 0.9,2 2,2 H 6.6 L 2,17.4 Z"
         id="path3"
         style="fill:#ffffff" /><path
         d="M 21.6,5.6 18.4,2.4 c -0.8,-0.8 -2,-0.8 -2.8,0 L 15.4,2.6 C 15,3 15,3.6 15.4,4 L 20,8.6 c 0.4,0.4 1,0.4 1.4,0 l 0.2,-0.2 c 0.8,-0.8 0.8,-2 0,-2.8 z"
         id="path5"
         style="fill:#ffffff" /><path
         d="M 14,5.4 C 13.6,5 13,5 12.6,5.4 L 3.5,14.5 C 3,15 3,15.6 3.4,16 L 8,20.6 c 0.4,0.4 1,0.4 1.4,0 l 9.1,-9.1 c 0.4,-0.4 0.4,-1 0,-1.4 z"
         id="path7"
         style="fill:#ffffff" /></g></g></svg>
