<?xml version="1.0" encoding="UTF-8" standalone="no"?>
<svg
   xmlns:dc="http://purl.org/dc/elements/1.1/"
   xmlns:cc="http://creativecommons.org/ns#"
   xmlns:rdf="http://www.w3.org/1999/02/22-rdf-syntax-ns#"
   xmlns:svg="http://www.w3.org/2000/svg"
   xmlns="http://www.w3.org/2000/svg"
   xmlns:sodipodi="http://sodipodi.sourceforge.net/DTD/sodipodi-0.dtd"
   xmlns:inkscape="http://www.inkscape.org/namespaces/inkscape"
   width="1600"
   height="1600"
   version="1.1"
   viewBox="-3 -3 30 30"
   xml:space="preserve"
   id="svg5"
   sodipodi:docname="email_1564504.svg"
   inkscape:version="1.0.2 (394de47547, 2021-03-26)"><metadata
     id="metadata11"><rdf:RDF><cc:Work
         rdf:about=""><dc:format>image/svg+xml</dc:format><dc:type
           rdf:resource="http://purl.org/dc/dcmitype/StillImage" /></cc:Work></rdf:RDF></metadata><defs
     id="defs9" /><sodipodi:namedview
     pagecolor="#ffffff"
     bordercolor="#666666"
     borderopacity="1"
     objecttolerance="10"
     gridtolerance="10"
     guidetolerance="10"
     inkscape:pageopacity="0"
     inkscape:pageshadow="2"
     inkscape:window-width="936"
     inkscape:window-height="480"
     id="namedview7"
     showgrid="false"
     inkscape:zoom="20.083333"
     inkscape:cx="12"
     inkscape:cy="12"
     inkscape:window-x="0"
     inkscape:window-y="27"
     inkscape:window-maximized="0"
     inkscape:current-layer="svg5" /><g
     id="info" /><g
     id="icons"
     style="fill:#ffffff"><path
       d="M 20,3 H 4 C 1.8,3 0,4.8 0,7 v 10 c 0,2.2 1.8,4 4,4 h 16 c 2.2,0 4,-1.8 4,-4 V 7 C 24,4.8 22.2,3 20,3 Z m 1.6,5.8 -7.9,5.3 c -0.5,0.3 -1.1,0.5 -1.7,0.5 -0.6,0 -1.2,-0.2 -1.7,-0.5 L 2.4,8.8 C 2,8.5 1.9,7.9 2.2,7.4 2.5,7 3.1,6.9 3.6,7.2 l 7.9,5.3 c 0.3,0.2 0.8,0.2 1.1,0 L 20.5,7.2 C 21,6.9 21.6,7 21.9,7.5 c 0.2,0.4 0.1,1 -0.3,1.3 z"
       id="email"
       style="fill:#ffffff" /></g></svg>
