<?xml version="1.0" encoding="UTF-8" standalone="no"?>
<svg
   xmlns:dc="http://purl.org/dc/elements/1.1/"
   xmlns:cc="http://creativecommons.org/ns#"
   xmlns:rdf="http://www.w3.org/1999/02/22-rdf-syntax-ns#"
   xmlns:svg="http://www.w3.org/2000/svg"
   xmlns="http://www.w3.org/2000/svg"
   xmlns:sodipodi="http://sodipodi.sourceforge.net/DTD/sodipodi-0.dtd"
   xmlns:inkscape="http://www.inkscape.org/namespaces/inkscape"
   width="1600"
   height="1600"
   version="1.1"
   viewBox="-3 -3 30 30"
   xml:space="preserve"
   id="svg5"
   sodipodi:docname="favorite_1564507.svg"
   inkscape:version="1.0.2 (394de47547, 2021-03-26)"><metadata
     id="metadata11"><rdf:RDF><cc:Work
         rdf:about=""><dc:format>image/svg+xml</dc:format><dc:type
           rdf:resource="http://purl.org/dc/dcmitype/StillImage" /></cc:Work></rdf:RDF></metadata><defs
     id="defs9" /><sodipodi:namedview
     pagecolor="#ffffff"
     bordercolor="#666666"
     borderopacity="1"
     objecttolerance="10"
     gridtolerance="10"
     guidetolerance="10"
     inkscape:pageopacity="0"
     inkscape:pageshadow="2"
     inkscape:window-width="936"
     inkscape:window-height="480"
     id="namedview7"
     showgrid="false"
     inkscape:zoom="20.083333"
     inkscape:cx="12"
     inkscape:cy="12"
     inkscape:window-x="0"
     inkscape:window-y="27"
     inkscape:window-maximized="0"
     inkscape:current-layer="svg5" /><g
     id="info" /><g
     id="icons"
     style="fill:#ffffff"><path
       d="m 12.9,2.6 2.3,5 c 0.1,0.3 0.4,0.5 0.7,0.6 L 21.1,9 c 0.9,0 1.2,1 0.6,1.6 l -3.8,3.9 c -0.2,0.2 -0.3,0.6 -0.3,0.9 l 0.9,5.4 c 0.1,0.8 -0.7,1.5 -1.4,1.1 l -4.7,-2.6 c -0.3,-0.2 -0.6,-0.2 -0.9,0 L 6.8,21.9 C 6.1,22.3 5.2,21.7 5.4,20.8 L 6.3,15.4 C 6.4,15.1 6.2,14.7 6,14.5 L 2.2,10.6 C 1.7,10 2,9 2.8,8.9 L 8,8.1 c 0.3,0 0.6,-0.3 0.7,-0.6 l 2.3,-5 c 0.5,-0.7 1.5,-0.7 1.9,0.1 z"
       id="favorite"
       style="fill:#ffffff" /></g></svg>
