<?xml version="1.0" encoding="UTF-8" standalone="no"?>
<svg
   xmlns:dc="http://purl.org/dc/elements/1.1/"
   xmlns:cc="http://creativecommons.org/ns#"
   xmlns:rdf="http://www.w3.org/1999/02/22-rdf-syntax-ns#"
   xmlns:svg="http://www.w3.org/2000/svg"
   xmlns="http://www.w3.org/2000/svg"
   xmlns:sodipodi="http://sodipodi.sourceforge.net/DTD/sodipodi-0.dtd"
   xmlns:inkscape="http://www.inkscape.org/namespaces/inkscape"
   width="1600"
   height="1600"
   version="1.1"
   viewBox="-3 -3 30 30"
   xml:space="preserve"
   id="svg5"
   sodipodi:docname="Message_1564513.svg"
   inkscape:version="1.0.2 (394de47547, 2021-03-26)"><metadata
     id="metadata11"><rdf:RDF><cc:Work
         rdf:about=""><dc:format>image/svg+xml</dc:format><dc:type
           rdf:resource="http://purl.org/dc/dcmitype/StillImage" /></cc:Work></rdf:RDF></metadata><defs
     id="defs9" /><sodipodi:namedview
     pagecolor="#ffffff"
     bordercolor="#666666"
     borderopacity="1"
     objecttolerance="10"
     gridtolerance="10"
     guidetolerance="10"
     inkscape:pageopacity="0"
     inkscape:pageshadow="2"
     inkscape:window-width="936"
     inkscape:window-height="480"
     id="namedview7"
     showgrid="false"
     inkscape:zoom="20.083333"
     inkscape:cx="12"
     inkscape:cy="12"
     inkscape:window-x="0"
     inkscape:window-y="27"
     inkscape:window-maximized="0"
     inkscape:current-layer="svg5" /><g
     id="info" /><g
     id="icons"
     style="fill:#ffffff"><path
       d="M 20,1 H 4 C 1.8,1 0,2.8 0,5 v 10 c 0,2.2 1.8,4 4,4 v 3 c 0,0.9 1.1,1.3 1.7,0.7 L 9.4,19 H 20 c 2.2,0 4,-1.8 4,-4 V 5 C 24,2.8 22.2,1 20,1 Z M 14,13 H 8 C 7.4,13 7,12.6 7,12 7,11.4 7.4,11 8,11 h 6 c 0.6,0 1,0.4 1,1 0,0.6 -0.4,1 -1,1 z M 16,9 H 8 C 7.4,9 7,8.6 7,8 7,7.4 7.4,7 8,7 h 8 c 0.6,0 1,0.4 1,1 0,0.6 -0.4,1 -1,1 z"
       id="message"
       style="fill:#ffffff" /></g></svg>
