<?xml version="1.0" encoding="UTF-8" standalone="no"?>
<svg
   xmlns:dc="http://purl.org/dc/elements/1.1/"
   xmlns:cc="http://creativecommons.org/ns#"
   xmlns:rdf="http://www.w3.org/1999/02/22-rdf-syntax-ns#"
   xmlns:svg="http://www.w3.org/2000/svg"
   xmlns="http://www.w3.org/2000/svg"
   xmlns:sodipodi="http://sodipodi.sourceforge.net/DTD/sodipodi-0.dtd"
   xmlns:inkscape="http://www.inkscape.org/namespaces/inkscape"
   width="1600"
   height="1600"
   version="1.1"
   viewBox="-3 -3 30 30"
   xml:space="preserve"
   id="svg9"
   sodipodi:docname="mic_1564514.svg"
   inkscape:version="1.0.2 (394de47547, 2021-03-26)"><metadata
     id="metadata15"><rdf:RDF><cc:Work
         rdf:about=""><dc:format>image/svg+xml</dc:format><dc:type
           rdf:resource="http://purl.org/dc/dcmitype/StillImage" /></cc:Work></rdf:RDF></metadata><defs
     id="defs13" /><sodipodi:namedview
     pagecolor="#ffffff"
     bordercolor="#666666"
     borderopacity="1"
     objecttolerance="10"
     gridtolerance="10"
     guidetolerance="10"
     inkscape:pageopacity="0"
     inkscape:pageshadow="2"
     inkscape:window-width="936"
     inkscape:window-height="480"
     id="namedview11"
     showgrid="false"
     inkscape:zoom="20.083333"
     inkscape:cx="12"
     inkscape:cy="12"
     inkscape:window-x="0"
     inkscape:window-y="27"
     inkscape:window-maximized="0"
     inkscape:current-layer="svg9" /><g
     id="info" /><g
     id="icons"
     style="fill:#ffffff"><g
       id="mic"
       style="fill:#ffffff"><path
         d="m 20.5,10 v 0 C 19.7,10 19,10.7 19,11.5 v 0.3 C 19,15.4 16.4,18.5 12.9,19 8.7,19.5 5,16.2 5,12 V 11.5 C 5,10.7 4.3,10 3.5,10 2.7,10 2,10.7 2,11.5 V 12 c 0,4.8 3,8.9 8,9.8 V 22 c 0,1.1 0.9,2 2,2 1.1,0 2,-0.9 2,-2 v -0.2 c 5,-1 8,-5.3 8,-10.1 V 11.5 C 22,10.7 21.3,10 20.5,10 Z"
         id="path3"
         style="fill:#ffffff" /><path
         d="m 12,16 c 2.8,0 5,-2.2 5,-5 V 5 C 17,2.2 14.8,0 12,0 9.2,0 7,2.2 7,5 v 6 c 0,2.8 2.2,5 5,5 z"
         id="path5"
         style="fill:#ffffff" /></g></g></svg>
