<?xml version="1.0" encoding="UTF-8" standalone="no"?>
<svg
   xmlns:dc="http://purl.org/dc/elements/1.1/"
   xmlns:cc="http://creativecommons.org/ns#"
   xmlns:rdf="http://www.w3.org/1999/02/22-rdf-syntax-ns#"
   xmlns:svg="http://www.w3.org/2000/svg"
   xmlns="http://www.w3.org/2000/svg"
   xmlns:sodipodi="http://sodipodi.sourceforge.net/DTD/sodipodi-0.dtd"
   xmlns:inkscape="http://www.inkscape.org/namespaces/inkscape"
   width="1600"
   height="1600"
   version="1.1"
   viewBox="-3 -3 30 30"
   xml:space="preserve"
   id="svg7"
   sodipodi:docname="new_1564516.svg"
   inkscape:version="1.0.2 (394de47547, 2021-03-26)"><metadata
     id="metadata13"><rdf:RDF><cc:Work
         rdf:about=""><dc:format>image/svg+xml</dc:format><dc:type
           rdf:resource="http://purl.org/dc/dcmitype/StillImage" /></cc:Work></rdf:RDF></metadata><defs
     id="defs11" /><sodipodi:namedview
     pagecolor="#ffffff"
     bordercolor="#666666"
     borderopacity="1"
     objecttolerance="10"
     gridtolerance="10"
     guidetolerance="10"
     inkscape:pageopacity="0"
     inkscape:pageshadow="2"
     inkscape:window-width="936"
     inkscape:window-height="480"
     id="namedview9"
     showgrid="false"
     inkscape:zoom="20.083333"
     inkscape:cx="12"
     inkscape:cy="12"
     inkscape:window-x="0"
     inkscape:window-y="27"
     inkscape:window-maximized="0"
     inkscape:current-layer="svg7" /><g
     id="info" /><g
     id="icons"
     style="fill:#ffffff"><g
       id="new"
       style="fill:#ffffff"><path
         d="M 17.5,8 C 16.1,8 15,6.9 15,5.5 V 2 C 15,1.4 14.6,1 14,1 H 6 C 3.8,1 2,2.8 2,5 v 14 c 0,2.2 1.8,4 4,4 h 12 c 2.2,0 4,-1.8 4,-4 V 9 C 22,8.4 21.6,8 21,8 Z M 14,17 H 8 C 7.4,17 7,16.6 7,16 7,15.4 7.4,15 8,15 h 6 c 0.6,0 1,0.4 1,1 0,0.6 -0.4,1 -1,1 z m 2,-4 H 8 C 7.4,13 7,12.6 7,12 7,11.4 7.4,11 8,11 h 8 c 0.6,0 1,0.4 1,1 0,0.6 -0.4,1 -1,1 z"
         id="path3"
         style="fill:#ffffff" /></g></g></svg>
