<?xml version="1.0" encoding="UTF-8" standalone="no"?>
<svg
   xmlns:dc="http://purl.org/dc/elements/1.1/"
   xmlns:cc="http://creativecommons.org/ns#"
   xmlns:rdf="http://www.w3.org/1999/02/22-rdf-syntax-ns#"
   xmlns:svg="http://www.w3.org/2000/svg"
   xmlns="http://www.w3.org/2000/svg"
   xmlns:sodipodi="http://sodipodi.sourceforge.net/DTD/sodipodi-0.dtd"
   xmlns:inkscape="http://www.inkscape.org/namespaces/inkscape"
   width="1600"
   height="1600"
   version="1.1"
   viewBox="-3 -3 30 30"
   xml:space="preserve"
   id="svg9"
   sodipodi:docname="notifications_1564519.svg"
   inkscape:version="1.0.2 (394de47547, 2021-03-26)"><metadata
     id="metadata15"><rdf:RDF><cc:Work
         rdf:about=""><dc:format>image/svg+xml</dc:format><dc:type
           rdf:resource="http://purl.org/dc/dcmitype/StillImage" /></cc:Work></rdf:RDF></metadata><defs
     id="defs13" /><sodipodi:namedview
     pagecolor="#ffffff"
     bordercolor="#666666"
     borderopacity="1"
     objecttolerance="10"
     gridtolerance="10"
     guidetolerance="10"
     inkscape:pageopacity="0"
     inkscape:pageshadow="2"
     inkscape:window-width="936"
     inkscape:window-height="480"
     id="namedview11"
     showgrid="false"
     inkscape:zoom="20.083333"
     inkscape:cx="12"
     inkscape:cy="12"
     inkscape:window-x="0"
     inkscape:window-y="27"
     inkscape:window-maximized="0"
     inkscape:current-layer="svg9" /><g
     id="info" /><g
     id="icons"
     style="fill:#ffffff"><g
       id="notification"
       style="fill:#ffffff"><path
         d="m 13.7,20 h -3.5 c -0.7,0 -1.3,0.8 -0.9,1.5 0.6,0.9 1.6,1.5 2.7,1.5 1.1,0 2.1,-0.6 2.6,-1.5 C 15,20.8 14.5,20 13.7,20 Z"
         id="path3"
         style="fill:#ffffff" /><path
         d="M 21.8,16.7 21.4,16.2 C 19.8,14.1 19,11.6 19,9 V 8.3 C 19,4.7 16.4,1.5 12.8,1.1 8.6,0.6 5,3.9 5,8 v 1 c 0,2.6 -0.8,5.1 -2.4,7.2 L 2.2,16.7 C 2,16.9 1.9,17.3 2,17.5 2.3,18.4 3.1,19 4,19 h 16 c 0.9,0 1.7,-0.6 1.9,-1.5 0.1,-0.3 0,-0.6 -0.1,-0.8 z"
         id="path5"
         style="fill:#ffffff" /></g></g></svg>
