<?xml version="1.0" encoding="UTF-8" standalone="no"?>
<svg
   xmlns:dc="http://purl.org/dc/elements/1.1/"
   xmlns:cc="http://creativecommons.org/ns#"
   xmlns:rdf="http://www.w3.org/1999/02/22-rdf-syntax-ns#"
   xmlns:svg="http://www.w3.org/2000/svg"
   xmlns="http://www.w3.org/2000/svg"
   xmlns:sodipodi="http://sodipodi.sourceforge.net/DTD/sodipodi-0.dtd"
   xmlns:inkscape="http://www.inkscape.org/namespaces/inkscape"
   width="1600"
   height="1600"
   version="1.1"
   viewBox="-3 -3 30 30"
   xml:space="preserve"
   id="svg70"
   sodipodi:docname="photo_1564522.svg"
   inkscape:version="1.0.2 (394de47547, 2021-03-26)"><metadata
     id="metadata76"><rdf:RDF><cc:Work
         rdf:about=""><dc:format>image/svg+xml</dc:format><dc:type
           rdf:resource="http://purl.org/dc/dcmitype/StillImage" /></cc:Work></rdf:RDF></metadata><defs
     id="defs74" /><sodipodi:namedview
     pagecolor="#ffffff"
     bordercolor="#666666"
     borderopacity="1"
     objecttolerance="10"
     gridtolerance="10"
     guidetolerance="10"
     inkscape:pageopacity="0"
     inkscape:pageshadow="2"
     inkscape:window-width="789"
     inkscape:window-height="480"
     id="namedview72"
     showgrid="false"
     inkscape:zoom="20.083333"
     inkscape:cx="12"
     inkscape:cy="12"
     inkscape:window-x="0"
     inkscape:window-y="27"
     inkscape:window-maximized="0"
     inkscape:current-layer="svg70" /><g
     id="info" /><g
     id="icons"
     style="fill:#ffffff"><path
       d="M 19,7 H 18.6 C 18.2,7 17.9,6.8 17.7,6.4 L 16.5,4.1 C 16.2,3.4 15.5,3 14.7,3 H 9.2 C 8.5,3 7.8,3.4 7.4,4.1 L 6.3,6.4 C 6.1,6.8 5.8,7 5.4,7 H 5 C 2.8,7 1,8.8 1,11 v 6 c 0,2.2 1.8,4 4,4 h 14 c 2.2,0 4,-1.8 4,-4 V 11 C 23,8.8 21.2,7 19,7 Z M 12,17 C 9.8,17 8,15.2 8,13 8,10.8 9.8,9 12,9 c 2.2,0 4,1.8 4,4 0,2.2 -1.8,4 -4,4 z"
       id="photo"
       style="fill:#ffffff" /></g></svg>
