<?xml version="1.0" encoding="UTF-8" standalone="no"?>
<svg xmlns="http://www.w3.org/2000/svg" height="512" width="512" version="1.0">
 <rect style="color-rendering:auto;color:#000000;isolation:auto;mix-blend-mode:normal;paint-order:markers fill stroke;shape-rendering:auto;solid-color:#000000;image-rendering:auto;fill:#333" height="512" width="512" y="0" x="0"/>
 <circle r="157.6" style="color-rendering:auto;color:#000000;isolation:auto;mix-blend-mode:normal;paint-order:stroke fill markers;shape-rendering:auto;solid-color:#000000;image-rendering:auto;fill:#e95420" cx="256" cy="256"/>
 <path style="color-rendering:auto;color:#000000;isolation:auto;mix-blend-mode:normal;paint-order:markers fill stroke;shape-rendering:auto;solid-color:#000000;image-rendering:auto;fill:#e95420" d="m256 63.55a192.4 192.4 0 0 0 -192.4 192.4 192.4 192.4 0 0 0 192.4 192.3 192.4 192.4 0 0 0 192.4 -192.4 192.4 192.4 0 0 0 -192.4 -192.4zm0 16.39a176.1 176.1 0 0 1 176.1 176.1 176.1 176.1 0 0 1 -176.1 176.1 176.1 176.1 0 0 1 -176.1 -176.1 176.1 176.1 0 0 1 176.1 -176.1z"/>
 <path style="stroke-width:22.18;fill:#333" d="m340.5 159c-5.005-0.082-11.57 1.395-19.77 4.02-23.22 7.63-81.22 29.04-93.53 33.47v38.64c0 2.133-1.723 3.938-3.938 3.938-2.133 0-3.938-1.805-3.938-3.938v-35.86c-6.399 2.215-15.1 5.169-25.35 8.778v64.4c12.55 5.743 20.02 9.271 25.35 13.04v-4.266c0-2.215 1.723-3.938 3.938-3.938 2.133 0 3.938 1.723 3.938 3.938v12.14c5.497 7.876 9.763 20.18 22.89 46.27 0.1641 0.4922 0.4102 1.067 0.6563 1.559 0.6563-1.313 1.969-2.133 3.446-2.133 2.215 0 3.938 1.723 3.938 3.938 0 7.302 5.989 13.21 13.29 13.21 2.215 0 3.938 1.805 3.938 3.938 0 2.215-1.723 3.938-3.938 3.938-1.969 0-3.856 0.4922-5.579 1.231 6.399 5.825 13.62 7.056 20.76-2.954 7.712-11.73 18.05-46.44 23.96-62.52 7.466-20.59 35.03-98.7 39.46-119.2 3.282-15.18-0.082-21.33-9.517-21.66zm-154.4 51.77c-13.54 4.84-26.34 9.517-31.01 11.73-21.17 11.4-10.91 28.71 12.8 37.74 6.974 3.282 12.88 6.071 18.21 8.532zm68.42 62.68c2.133 0 3.938 1.805 3.938 3.938v49.8c0 2.215-1.805 3.938-3.938 3.938-2.215 0-3.938-1.723-3.938-3.938v-49.8c0-2.133 1.723-3.938 3.938-3.938z"/>
 <path style="stroke-width:4.677;fill:#333" d="m254.5 87.25c-2.17 0-3.929 1.759-3.929 3.934v129.4c0 2.17 1.759 3.929 3.929 3.929s3.929-1.759 3.929-3.929v-129.4c0-2.175-1.759-3.934-3.929-3.934z"/>
 <path style="stroke-width:4.677;fill:#333" d="m250.7 341.2c-0.2691 0.5321-0.4358 1.126-0.4358 1.762 0 7.32-5.954 13.27-13.27 13.27-2.17 0-3.929 1.759-3.929 3.929s1.759 3.929 3.929 3.929c7.32 0 13.27 5.954 13.27 13.27 0 2.17 1.759 3.929 3.929 3.929s3.934-1.759 3.934-3.929c0-5.331 3.167-9.927 7.714-12.04-6.339-5.776-11.73-16.04-15.14-24.13z"/>
 <path style="stroke-width:4.677;fill:#333" d="m190 283.1c-2.17 0-3.934 1.759-3.934 3.929v49.9c0 2.17 1.759 3.929 3.934 3.929 2.17 0 3.929-1.759 3.929-3.929v-49.79c0-2.17-1.759-3.929-3.929-3.929z"/>
 <path style="stroke-width:4.677;fill:#333" d="m223.2 59.7c-2.166 0-3.929 1.759-3.929 3.934v122.4c0 2.17 1.763 3.929 3.929 3.929 2.175 0 3.934-1.759 3.934-3.929v-122.4c0-2.17-1.759-3.929-3.934-3.929z"/>
 <path style="stroke-width:4.677;fill:#333" d="m189.3 370.9c-2.166 0-3.929 1.759-3.929 3.929v71.2c0 2.17 1.763 3.929 3.929 3.929 2.175 0 3.934-1.759 3.934-3.929v-71.2c0-2.175-1.759-3.934-3.934-3.934z"/>
 <path style="stroke-width:4.677;fill:#333" d="m253.8 410.1c-2.166 0-3.929 1.763-3.929 3.929v30.91c0 2.17 1.763 3.934 3.929 3.934 2.175 0 3.934-1.763 3.934-3.934v-30.91c-0.005-2.166-1.763-3.929-3.934-3.929z"/>
 <path style="color:#000000;opacity:.1;stroke-width:11.29;fill:#ececec;fill-opacity:.7040" d="m257.1 0v512h255.1v-512z"/>
 <path style="stroke-width:4.677;fill:#333" d="m189.6 96.63c-2.17 0-3.929 1.759-3.929 3.929 0 7.32-5.955 13.27-13.27 13.27-2.17 0-3.934 1.759-3.934 3.929s1.759 3.929 3.934 3.929c7.32 0 13.27 5.955 13.27 13.27 0 2.17 1.759 3.929 3.929 3.929s3.934-1.759 3.934-3.929c0-7.316 5.955-13.27 13.27-13.27 2.17 0 3.934-1.759 3.934-3.929s-1.759-3.929-3.934-3.929c-7.32 0-13.27-5.955-13.27-13.27-0.005-2.17-1.763-3.929-3.934-3.929z"/>
 <path style="stroke-width:4.677;fill:#333" d="m152.6 262.7c-2.166 0-3.929 1.759-3.929 3.934v122.3c0 2.17 1.763 3.929 3.929 3.929 2.175 0 3.934-1.759 3.934-3.929v-122.4c0-2.17-1.759-3.929-3.934-3.929z"/>
 <path style="stroke-width:4.677;fill:#333" d="m152.6 413.6c-2.166 0-3.929 1.759-3.929 3.929v71.2c0 2.17 1.763 3.929 3.929 3.929 2.175 0 3.934-1.759 3.934-3.929v-71.2c0-2.175-1.759-3.934-3.934-3.934z"/>
 <path style="stroke-width:4.677;fill:#333" d="m151 81.5c-2.166 0-3.929 1.763-3.929 3.929v44.91c0 2.17 1.763 3.934 3.929 3.934 2.175 0 3.934-1.763 3.934-3.934v-44.87c-0.1-2.17-1.8-3.93-4-3.93z"/>
 <path style="stroke-width:4.677;fill:#333" d="m152.4 167.1c-2.17 0-3.929 1.759-3.929 3.929 0 7.32-5.955 13.27-13.27 13.27-2.17 0-3.929 1.759-3.929 3.929s1.759 3.929 3.929 3.929c7.32 0 13.27 5.955 13.27 13.27 0 2.17 1.759 3.929 3.929 3.929s3.934-1.759 3.934-3.929c0-7.316 5.95-13.27 13.27-13.27 2.175 0 3.938-1.759 3.938-3.929s-1.763-3.929-3.938-3.929c-7.316 0-13.27-5.955-13.27-13.27 0-2.17-1.763-3.929-3.934-3.929z"/>
 <path style="stroke-width:4.677;fill:#333" d="m190 146c-2.17 0-3.934 1.759-3.934 3.929v43.79c0 2.17 1.759 3.929 3.934 3.929 2.17 0 3.929-1.759 3.929-3.929v-43.79c-0.1-2.1-1.8-3.9-4-3.9z"/>
 <path style="stroke-width:4.677;fill:#333" d="m222.8 348.8c-2.17 0-3.934 1.759-3.934 3.929v49.79c0 2.17 1.759 3.929 3.934 3.929 2.17 0 3.929-1.759 3.929-3.929v-49.79c0-2.17-1.759-3.929-3.929-3.929z"/>
</svg>
