<?xml version="1.0" encoding="UTF-8" standalone="no"?>
<svg style="enable-background:new" xmlns="http://www.w3.org/2000/svg" height="512" viewBox="0 0 512 512" width="512" version="1.1" xmlns:xlink="http://www.w3.org/1999/xlink">
 <defs>
  <linearGradient id="a" y2="228" gradientUnits="userSpaceOnUse" x2="35.7" gradientTransform="matrix(1.07 0 0 1.073 -9.448 -11.6)" y1="228" x1="256">
   <stop offset="0"/>
   <stop stop-opacity="0" offset="1"/>
  </linearGradient>
 </defs>
 <g>
  <path d="m0 0v183.9 144.2 183.9h512v-183.9-144.2-183.9h-512z" fill="#414141"/>
  <path opacity=".03" d="m0 512 512-512v512z" stroke="#808080" fill="#fff"/>
 </g>
 <g>
  <path opacity=".1" style="enable-background:new" d="m108.9 138-4.935 14.81 50.1 20.04-50.1 20.04 4.935 14.81 64.46-27.22v-15.25zm66.29 90.03v15.1h74.8v-15.1z" transform="matrix(1.04 0 0 1.043 -4.188 -5.926)"/>
  <path opacity=".2" style="enable-background:new" d="m107.1 136.5-5.281 15.89 53.61 21.5-53.61 21.5 5.281 15.89 68.97-29.21v-16.37zm70.93 96.6v16.21h80.1v-16.21z" fill="url(#a)"/>
  <path style="enable-background:new" d="m109.1 136-5.134 15.45 52.12 20.91-52.12 20.91 5.134 15.45 67.06-28.39v-15.91zm68.96 93.92v15.76h77.79v-15.76z" fill="#f2f2f2"/>
  <path style="enable-background:new" d="m109.1 136-5.135 15.45 0.6116 0.2445 4.523-13.6 67.06 28.4v-2.086zm44.38 37.39-49.52 19.86 0.6116 1.842 51.51-20.66zm24.58 56.53v2.086h77.79v-2.086z" fill="#fff"/>
 </g>
</svg>
