<?xml version="1.0" encoding="UTF-8" standalone="no"?>
<svg
   xmlns:dc="http://purl.org/dc/elements/1.1/"
   xmlns:cc="http://creativecommons.org/ns#"
   xmlns:rdf="http://www.w3.org/1999/02/22-rdf-syntax-ns#"
   xmlns:svg="http://www.w3.org/2000/svg"
   xmlns="http://www.w3.org/2000/svg"
   xmlns:sodipodi="http://sodipodi.sourceforge.net/DTD/sodipodi-0.dtd"
   xmlns:inkscape="http://www.inkscape.org/namespaces/inkscape"
   width="1600"
   height="1600"
   version="1.1"
   viewBox="-3 -3 30 30"
   xml:space="preserve"
   id="svg59"
   sodipodi:docname="time_1564532.svg"
   inkscape:version="1.0.2 (394de47547, 2021-03-26)"><metadata
     id="metadata65"><rdf:RDF><cc:Work
         rdf:about=""><dc:format>image/svg+xml</dc:format><dc:type
           rdf:resource="http://purl.org/dc/dcmitype/StillImage" /></cc:Work></rdf:RDF></metadata><defs
     id="defs63" /><sodipodi:namedview
     pagecolor="#ffffff"
     bordercolor="#666666"
     borderopacity="1"
     objecttolerance="10"
     gridtolerance="10"
     guidetolerance="10"
     inkscape:pageopacity="0"
     inkscape:pageshadow="2"
     inkscape:window-width="936"
     inkscape:window-height="480"
     id="namedview61"
     showgrid="false"
     inkscape:zoom="20.083333"
     inkscape:cx="12"
     inkscape:cy="12"
     inkscape:window-x="0"
     inkscape:window-y="27"
     inkscape:window-maximized="0"
     inkscape:current-layer="svg59" /><g
     id="info" /><g
     id="icons"
     style="fill:#ffffff"><g
       id="time"
       style="fill:#ffffff"><path
         d="M 12,0 C 5.4,0 0,5.4 0,12 0,18.6 5.4,24 12,24 18.6,24 24,18.6 24,12 24,5.4 18.6,0 12,0 Z m 0,21 C 7,21 3,17 3,12 3,7 7,3 12,3 c 5,0 9,4 9,9 0,5 -4,9 -9,9 z"
         id="path53"
         style="fill:#ffffff" /><path
         d="M 14,11.2 V 7 C 14,5.9 13.1,5 12,5 10.9,5 10,5.9 10,7 v 5 c 0,0.5 0.2,1 0.6,1.4 l 3,3 c 0.4,0.4 0.9,0.6 1.4,0.6 0.5,0 1,-0.2 1.4,-0.6 0.8,-0.8 0.8,-2 0,-2.8 z"
         id="path55"
         style="fill:#ffffff" /></g></g></svg>
