<?xml version="1.0" encoding="UTF-8" standalone="no"?>
<svg
   xmlns:dc="http://purl.org/dc/elements/1.1/"
   xmlns:cc="http://creativecommons.org/ns#"
   xmlns:rdf="http://www.w3.org/1999/02/22-rdf-syntax-ns#"
   xmlns:svg="http://www.w3.org/2000/svg"
   xmlns="http://www.w3.org/2000/svg"
   xmlns:sodipodi="http://sodipodi.sourceforge.net/DTD/sodipodi-0.dtd"
   xmlns:inkscape="http://www.inkscape.org/namespaces/inkscape"
   width="1600"
   height="1600"
   version="1.1"
   viewBox="-3 -3 30 30"
   xml:space="preserve"
   id="svg5"
   sodipodi:docname="view_1564488.svg"
   inkscape:version="1.0.2 (394de47547, 2021-03-26)"><metadata
     id="metadata11"><rdf:RDF><cc:Work
         rdf:about=""><dc:format>image/svg+xml</dc:format><dc:type
           rdf:resource="http://purl.org/dc/dcmitype/StillImage" /></cc:Work></rdf:RDF></metadata><defs
     id="defs9" /><sodipodi:namedview
     pagecolor="#ffffff"
     bordercolor="#666666"
     borderopacity="1"
     objecttolerance="10"
     gridtolerance="10"
     guidetolerance="10"
     inkscape:pageopacity="0"
     inkscape:pageshadow="2"
     inkscape:window-width="789"
     inkscape:window-height="480"
     id="namedview7"
     showgrid="false"
     inkscape:zoom="20.083333"
     inkscape:cx="12"
     inkscape:cy="12"
     inkscape:window-x="0"
     inkscape:window-y="27"
     inkscape:window-maximized="0"
     inkscape:current-layer="svg5" /><g
     id="info" /><g
     id="icons"
     style="fill:#ffffff"><path
       d="M 12,4 C 7.3,4 3.2,6.9 1.2,11.1 c -0.3,0.6 -0.3,1.3 0,1.9 2,4.1 6.1,7 10.8,7 4.7,0 8.8,-2.9 10.8,-7.1 0.3,-0.6 0.3,-1.3 0,-1.9 C 20.8,6.9 16.7,4 12,4 Z m 0,12 C 9.8,16 8,14.2 8,12 8,9.8 9.8,8 12,8 c 2.2,0 4,1.8 4,4 0,2.2 -1.8,4 -4,4 z"
       id="view"
       style="fill:#ffffff" /></g></svg>
