<?xml version="1.0" encoding="UTF-8" standalone="no"?>
<svg
   xmlns:dc="http://purl.org/dc/elements/1.1/"
   xmlns:cc="http://creativecommons.org/ns#"
   xmlns:rdf="http://www.w3.org/1999/02/22-rdf-syntax-ns#"
   xmlns:svg="http://www.w3.org/2000/svg"
   xmlns="http://www.w3.org/2000/svg"
   version="1.1"
   id="svg2"
   width="1200"
   height="1200"
   viewBox="0 0 1200 1200">
  <metadata
     id="metadata8">
    <rdf:RDF>
      <cc:Work
         rdf:about="">
        <dc:format>image/svg+xml</dc:format>
        <dc:type
           rdf:resource="http://purl.org/dc/dcmitype/StillImage" />
        <dc:title></dc:title>
      </cc:Work>
    </rdf:RDF>
  </metadata>
  <defs
     id="defs6" />
  <g
     id="g10">
    <path
       style="fill:#000000;stroke:none"
       d="M 538.039,21.7423 C 525.09,26.921 530,53.0818 530,64 c 0,34.646 0.686,69.37 0.255,104 -0.131,10.516 -4.571,32.584 1.074,41.736 2.384,3.865 7.787,3.177 11.671,3.279 9.13,0.238 18.946,0.372 28,1.561 27.94,3.668 56.886,1.124 84.961,3.656 14.64,1.32 38.072,6.108 51.945,0.504 C 717.568,214.833 713,186.811 713,178 V 73 c 0,-9.554 5.154,-29.5327 -0.938,-37.5811 -2.691,-3.5543 -8.076,-3.3972 -12.062,-3.4182 -9.702,-0.0512 -19.32,-1.7452 -29,-1.9861 -30.795,-0.7662 -62.33,-3.2653 -93,-6.1844 -10.647,-1.0133 -29.969,-6.084 -39.961,-2.0879 M 576,187 c -4.52,0 -17.978,2.265 -20.968,-1.603 -3.468,-4.486 1.228,-18.117 1.802,-23.397 2.287,-21.048 5.752,-41.961 8.116,-63 0.637,-5.6708 4.59,-17.6884 1.102,-22.6829 C 562.993,71.9364 553.641,73.0005 549,73 c 0.565,-5.6659 2.931,-18.8551 8.225,-21.9684 2.606,-1.5328 5.952,-0.5249 8.775,-0.3973 6.678,0.3016 24.081,-2.5857 25.772,6.385 2.284,12.1266 -2.898,27.869 -4.49,39.9807 -3.919,29.803 -8.916,60.069 -11.282,90 m 34,1 c 1.382,-5.807 0.065,-12.625 2.988,-18 3.723,-6.846 11.555,-12.517 17.011,-18 13.981,-14.049 35.165,-33.007 41.91,-52 C 675.215,90.6899 669.951,76.4202 657.83,79.1489 650.345,80.8342 644.289,89.8768 643,97 637.674,97 627.096,98.7513 622.746,94.9869 619.16,91.8833 622.914,80.7544 624.243,77 629.767,61.3912 645.59,51.3428 662,56.0402 c 37.324,10.684 40.109,53.6458 18.739,79.9598 -5.594,6.888 -11.521,13.673 -17.742,20 -2.437,2.478 -7.384,6.115 -7.536,9.941 -0.168,4.266 5.721,4.021 8.538,4.061 5.853,0.085 22.71,-1.211 24.259,6.103 0.735,3.473 0.027,14.532 -3.575,16.292 -5.152,2.517 -13.26,-0.12 -18.683,-0.358 -16.735,-0.732 -40.518,2.494 -56,-4.039 M 352,87.4244 c -13.64,1.7898 -28.246,2.224 -42,2.561 -5.886,0.1441 -13.8,-1.1265 -17.387,4.7862 -2.481,4.0896 0.402,6.3914 4.392,7.0544 11.193,1.858 24.735,4.385 22.694,19.174 -3.106,22.513 -10.442,44.783 -15.189,67 -3.138,14.686 -4.224,33.467 -10.929,46.996 -5.65,11.4 -16.95,6.05 -26.581,7.113 -2.871,0.317 -8.762,2.604 -7.539,6.577 1.033,3.354 7.884,2.294 10.5,2.549 10.962,1.071 22.146,-0.241 33.039,1.189 35.996,4.727 74.665,4.033 111.015,4.565 11.583,0.17 30.147,5.05 40.836,-0.503 2.957,-1.536 3.427,-5.004 0,-6.207 -5.948,-2.089 -13.438,0.446 -18.832,-3.021 -11.767,-7.563 -1.499,-31.559 1.405,-42.258 7.368,-27.14 13.129,-54.719 19.949,-82 1.447,-5.787 8.808,-23.5743 4.023,-28.3966 -3.655,-3.6826 -11.931,-0.8383 -16.396,-0.6427 -14.837,0.6498 -31.416,-0.4346 -45.995,2.2677 -3.746,0.6943 -10.588,7.1076 -5.669,10.5936 8.138,5.766 24.115,-0.143 25.049,15.178 0.567,9.297 -3.225,19.964 -5.175,29 -4.457,20.65 -9.976,41.247 -13.95,62 -1.703,8.891 -2.459,25.787 -10.304,31.436 -4.922,3.544 -10.44,2.031 -15.956,1.653 -10.239,-0.701 -20.893,0.859 -31,-1.483 -16.1,-3.731 -6.933,-25.184 -4.374,-35.606 7.511,-30.59 14.641,-61.307 21.723,-92 C 362.128,104.953 372.106,84.7863 352,87.4244 M 837,207 c -6.176,10.246 -14.805,17.889 -22.14,27.171 -2.094,2.65 -6.446,7.88 -3.241,11.225 3.754,3.917 11.89,-0.575 15.381,-2.78 12.463,-7.875 23.175,-21.374 37,-26.616 -3.037,4.961 -6.346,9.88 -9.099,15 -5.906,10.984 -2.717,29.227 13.099,26.674 16.102,-2.6 27.457,-15.958 41,-23.674 1.546,6.492 -0.043,14.64 5.228,19.721 5.937,5.725 17.702,3.286 24.772,1.24 20.891,-6.048 39.97,-18.914 57,-32.081 7.26,-5.611 14.51,-11.382 21,-17.881 1.95,-1.952 6.61,-5.442 6.08,-8.663 -0.84,-5.065 -17.94,8.445 -20.08,9.944 -16.43,11.501 -33.039,23.506 -52,30.492 -5.057,1.863 -17.185,6.013 -21.393,0.91 -3.064,-3.716 0.037,-11.478 4.498,-12.654 16.632,-4.386 31.019,-7.209 43.605,-21.067 5.03,-5.542 9.81,-12.835 4.64,-19.917 -7.784,-10.65 -23.122,-4.272 -32.35,0.748 -19.725,10.733 -34.273,30.144 -53,42.864 -4.612,3.133 -15.86,12.088 -21.848,9.849 -6.014,-2.249 -0.515,-12.286 1.548,-15.505 6.551,-10.221 15.434,-18.767 23.231,-28 2.765,-3.275 6.058,-8.55 0.921,-11.427 -5.662,-3.17 -11.433,0.833 -15.852,4.243 -10.831,8.355 -21.655,16.529 -33,24.184 3.247,-7.431 17.27,-19.809 15.867,-27.981 -1.032,-6.012 -8.161,-5.27 -11.867,-2.585 -16.306,11.812 -29.989,25.764 -50,31.566 l -1,-1 c 4.064,-9.759 13.675,-21.646 10.566,-32.999 -2.6,-9.495 -17.408,-8.145 -24.566,-5.267 -19.586,7.877 -35.669,24.051 -45.958,42.266 -7.953,14.081 -10.472,38.069 12.958,34.7 12.598,-1.812 22.007,-10.132 31.17,-18.214 8.595,-7.582 16.772,-8.232 26.83,-12.798 7.304,-3.316 13.539,-8.86 21,-11.688 m -37,-20 c 0.422,6.389 -2.493,14.085 -9,16 -3.033,-7.351 1.537,-13.904 9,-16 m 142,27 c 0.877,-7.711 9.952,-14.92 16,-19.211 1.966,-1.394 5.873,-4.211 8.377,-2.505 3.297,2.246 -1.847,7.131 -3.396,8.677 C 957.176,206.753 949.916,211.72 942,214 m -184,21 c 0.093,-4.374 0.921,-8.017 2.782,-12 2.14,-4.581 6.322,-16.307 12.14,-17.079 5.112,-0.677 9.4,10.131 8.127,14.079 -2.839,8.798 -14.479,14.817 -23.049,15 M 142,338 c 3.031,0.027 8.071,-0.415 9.292,3.228 1.393,4.155 -2.93,9.825 -3.942,13.772 -2.033,7.929 -2.359,18.028 -0.451,26 6.602,27.585 32.82,43.43 60.101,40.155 12.243,-1.47 23.843,-5.742 33,-14.245 2.22,-2.062 8.425,-6.687 6.11,-10.273 -8.858,-13.717 -21.814,0.068 -31.11,3.255 -17.313,5.936 -42.984,-6.343 -44,-25.892 17.717,0 35.326,0.362 53,0.919 6.329,0.199 16.249,-1.858 21.941,1.26 15.672,8.583 -9.617,42.819 16.059,42.819 3.082,0 6.017,-0.179 8.999,-1.017 C 280.16,415.405 278,406.801 278,399 c 0,-14.032 -2.763,-31.516 1.634,-45 1.923,-5.895 7.527,-13.257 14.276,-13.427 8.89,-0.223 16.996,9.057 18.275,17.141 2.96,18.713 -2.55,38.758 1.043,57.242 1.565,8.051 20.32,6.312 25.208,2.11 3.571,-3.07 2.321,-9.053 1.849,-13.066 -1,-8.51 -0.285,-17.438 -0.285,-26 0,-11.877 2.497,-26.573 -1.055,-38 C 329.853,310.748 299.66,316.24 279,326 276.743,317.732 262.685,313.677 255.46,319.603 249.965,324.11 250.001,331.611 250,338 244.296,332.296 238.816,325.96 232,321.548 213.297,309.44 194.525,315 174,315 c -6.322,0 -26.855,1.894 -31.258,-2.603 -7.069,-7.221 4.556,-27.615 -4.06,-33.369 -2.759,-1.843 -8.425,-1.55 -11.682,-1.858 -2.724,-0.258 -6.211,-0.586 -8.776,0.572 -12.799,5.774 -2.491,23.068 -7.341,31.979 -1.473,2.706 -5.126,2.891 -7.284,4.842 -3.953,3.574 -4.679,8.415 -4.594,13.436 0.167,9.955 11.14,7.137 12.767,16.002 2.866,15.619 0.228,34.107 0.228,49.999 0,5.195 -1.883,15.117 1.179,19.566 3.723,5.409 24.225,3.453 27.642,-1.868 4.604,-7.17 1.179,-25.293 1.179,-33.698 0,-13.397 -1.681,-26.701 0,-40 m 845.04,-47.142 c -7.59,3.221 -9.03,11.931 -9.04,19.142 -0.03,17.361 -0.2,34.67 -0.63,51.999 -0.75,29.973 0.43,59.992 -0.8,89.962 -0.32,7.659 -4.159,25.974 2.71,31.436 3.14,2.497 8,1.42 11.72,1.773 11.3,1.071 22.64,0.83 34,0.83 9.18,0 21.46,2.112 30,-1.804 7.75,-3.56 7,-11.958 7,-19.196 0,-18.052 1,-35.988 1,-54 0,-28.72 1,-57.278 1,-86 0,-7.876 3.21,-24.847 -3.23,-30.566 -3.67,-3.259 -9.24,-2.434 -13.77,-2.434 -9.16,-10e-4 -18.87,-0.301 -28,-1.17 -8.93,-0.85 -23.49,-3.563 -31.96,0.028 M 1028,328 v 1 l -25,11 c 1.82,-13.631 14.49,-14.157 25,-12 m -799,26 c -14.38,0 -28.667,-1 -43,-1 -2.823,0 -12.237,1.499 -13.122,-2.318 -1.761,-7.596 12.323,-15.334 18.122,-16.353 14.771,-2.596 33.204,4.531 38,19.671 m 812,20 c -2.83,19.16 -18.14,37.531 -27.58,54 -2.09,3.643 -10.79,14.422 -6.91,18.397 2.39,2.449 7.42,1.594 10.49,1.604 7.86,0.026 16.45,-0.385 24,1.999 v 1 c -13.3,0.461 -31.24,2.773 -44,-1 l 24.55,-43 19.45,-33 M 60,493.425 C 45.3416,495.422 31.8741,504.188 27.2207,519 c -4.1562,13.229 -1.5254,29.36 -1.2346,43.001 0.5883,27.591 0.5547,55.405 0.2261,82.995 -0.1776,14.915 -2.6571,36.145 5.8958,49 7.5553,11.356 21.3931,13.003 33.892,13.004 19.443,10e-4 38.602,-1 58,-1 13.058,0 27.068,1.429 40,-0.428 13.439,-1.93 26.909,-7.969 31.907,-21.572 4.718,-12.842 2.093,-29.496 2.093,-43 v -86 c 0,-14.079 2.806,-32.489 -4.954,-45 -7.082,-11.416 -18.442,-14.63 -31.046,-15.83 -20.035,-1.908 -40.873,0.065 -61,-0.174 -13.559,-0.161 -27.4173,-2.421 -41,-0.571 m 34,17.862 c 7.154,-0.841 10.982,2.275 9.852,9.713 -0.879,5.782 -6.521,9.424 -8.203,15 C 92.481,546.502 95,561.058 95,572 c 0,5.321 -1.001,11.865 0.653,16.985 3.357,10.387 17.104,2.02 18.979,11.745 1.718,8.909 -5.218,11.436 -12.632,12.806 -6.885,1.273 -13.15,1.467 -20,0.064 C 47.651,606.565 37.066,567.671 52.3233,539 60.9471,522.794 76.017,513.401 94,511.287 M 116,689 c 0,-15.876 14.575,-20.233 14.985,-37 0.543,-22.163 -0.985,-44.735 -0.985,-67 0,-16.293 1.863,-33.841 -0.185,-50 -1.312,-10.349 -11.806,-10.632 -11.815,-22 23.381,0.498 43.725,22.709 51.796,43 17.998,45.248 11.281,133 -53.796,133 m 998,-81 c 4.85,-3.554 10.08,-6.614 13.09,-12.04 7.38,-13.328 4.5,-39.769 -7.6,-49.517 -7.86,-6.325 -17.93,-6.874 -27.49,-7.532 -19.5,-1.343 -40.12,0.269 -51.9,18.089 -7.54,11.42 -12.85,30.002 5.9,28.957 2.72,-0.152 5.47,-0.74 7.96,-1.9 7.6,-3.548 3.35,-13.191 8.43,-18.924 8.99,-10.141 37.84,-5.278 41.96,7.867 0.8,2.563 0.65,5.349 0.65,8 0,4.805 0.03,10.805 -4.27,13.991 -10.14,7.493 -30.95,-3.841 -29.45,18.008 0.74,10.806 14.76,5.622 21.72,7.805 9.65,3.026 11.2,12.402 10.99,21.196 -0.1,3.695 -0.46,7.862 -3.29,10.57 -7.51,7.159 -32.18,6.542 -39.17,-0.91 -4.88,-5.206 -0.97,-13.332 -5.39,-17.918 -2.67,-2.776 -8.66,-1.787 -12.14,-1.738 -2.63,0.037 -5.34,0.033 -7.53,1.699 -13.33,10.13 1.19,36.188 12.53,41.226 19.21,8.532 57.08,6.056 71.79,-10.019 13.53,-14.796 12.95,-48.37 -6.79,-56.91 M 103,689 c -8.206,-0.005 -15.53,-1.864 -23,-5.309 -6.1233,-2.824 -11.7408,-6.66 -16.1003,-11.861 -3.397,-4.053 -5.7529,-8.696 -7,-13.83 -1.0333,-4.253 -1.2073,-8.718 -0.2191,-13 6.3484,-27.509 50.0124,-17.364 45.6864,9 -0.942,5.74 -8.396,12.588 -7.486,17.996 1.14,6.775 8.045,8.801 8.119,17.004 m 0,4 1,2 -1,-2 m 893,72.424 c -15.53,2.04 -44.119,-5.644 -55.895,6.62 -8.178,8.517 -6,27.775 -5.65,38.956 0.94,29.948 -1.455,60.034 -1.455,90 0,8.968 -4.461,30.674 2.434,37.427 5.253,5.146 17.059,2.362 23.566,1.743 19.12,-1.819 39,0.268 58,-2.47 25.89,-3.731 19,-37.69 19,-57.7 0,-26.788 -0.13,-54.194 1.04,-81 0.37,-8.573 4.7,-24.84 -2.43,-31.566 -6.45,-6.081 -30.21,-3.113 -38.61,-2.01 M 221,863 v -2 c 26.717,-13.308 32.09,-50.17 12.816,-71.999 C 222.098,775.73 204.988,771.385 188,770.184 151.964,767.638 108.842,798.101 117.888,838 c 1.749,7.715 5.174,14.466 11.127,19.815 2.467,2.217 10.929,5.529 10.929,9.251 0,3.438 -5.595,6.231 -7.905,8.064 -6.131,4.866 -11.292,11.08 -15.166,17.87 -17.182,30.115 -1.75,66.01 29.127,78.351 27.337,10.926 68.033,5.117 88.91,-16.39 C 262.621,926.412 257.711,880.14 221,863 m 766,37 c -9.15,0.189 -18.887,0.303 -28,1.17 -3.074,0.292 -8.633,2.178 -10.972,-0.773 -4.897,-6.179 -0.089,-22.279 2.666,-28.397 8.559,-19.001 16.975,-38.065 25.676,-57 3.41,-7.406 6.16,-18.59 11.6,-24.667 3.47,-3.882 11.91,0.612 13.39,4.772 2.3,6.502 -4.98,16.247 -7.5,21.895 -6.39,14.331 -12.72,28.695 -19.166,43 -2.275,5.046 -7.409,12.359 -7.472,17.941 -0.08,7.085 13.538,2.614 17.548,5.087 5.17,3.192 2.33,12.063 2.23,16.972 M 168,795.379 c 14.03,-2.811 31.365,-0.026 40.61,11.625 13.132,16.55 5.284,41.869 -15.61,46.327 -14.553,3.105 -33.087,-0.19 -41.751,-13.332 -9.971,-15.126 -1.614,-40.941 16.751,-44.62 M 1012,918 c -3.37,0.625 -10.41,2.638 -12.97,-0.603 C 996.46,914.15 998,905.929 998,902 c 0,-14.209 -2.21,-34.317 1.32,-47.985 0.86,-3.326 9.17,-11.335 12.65,-7.368 4.67,5.33 -0.04,21.488 1.26,28.334 1.49,7.87 9.7,6.009 8.92,16.018 -0.8,10.403 -10.12,15.278 -10.15,27.001 M 173,878.286 c 16.449,-2.021 34.181,2.347 43.779,16.715 14.831,22.2 2.398,52.927 -23.779,56.699 -14.818,2.135 -32.527,0.445 -42.671,-11.704 -18.369,-21.999 -6.188,-58.164 22.671,-61.71 m 651,20.138 c -14.526,1.908 -44.094,-4.672 -54.177,7.62 C 761.028,916.766 765,938.935 765,952 c 0,22.016 -1,43.957 -1,66 0,14.73 1.494,30.39 -0.424,45 -1.589,12.1 -0.576,24.81 -0.576,37 0,4.38 -0.913,10.23 2.434,13.68 4.643,4.79 14.775,1.81 20.566,1.41 18.543,-1.27 37.573,-0.87 56,-3.52 27.571,-3.96 15.784,-36.46 18.424,-56.57 1.938,-14.76 0.226,-30.13 0.591,-45 0.578,-23.629 1.985,-47.342 1.985,-71 0,-8.797 4.08,-32.052 -2.434,-38.566 -5.929,-5.929 -28.689,-3.044 -36.566,-2.01 m -7,20.247 c 5.32,-0.163 26.937,-4.212 28.361,2.963 0.39,1.965 -0.215,4.417 -0.498,6.37 -2.793,19.243 -18.335,7.352 -30.734,14.009 -8.87,4.762 -8.626,20.403 -8.085,28.986 0.615,9.759 8.488,5.088 14.956,5.08 8.111,-0.011 16.612,2.518 20.911,9.925 6.101,10.511 3.089,27.306 3.089,38.996 0,24.83 6.567,62.15 -25,68.99 -5.242,1.13 -10.653,1.21 -16,0.97 -27.236,-1.24 -24,-27.48 -24,-46.96 0,-5.57 -2.153,-16.92 1.028,-21.68 2.994,-4.49 22.04,-4.54 24.369,0.83 4.591,10.57 -2.024,26.49 -0.249,37.85 1.199,7.66 9.463,6.98 12.673,0.96 2.345,-4.41 1.179,-11.13 1.179,-15.96 0,-11.04 1,-21.94 1,-33 0,-4.25 0.904,-10.01 -1.318,-13.85 -1.992,-3.449 -5.557,-3.14 -8.382,-0.92 -8.448,6.65 -9.95,8.79 -21.3,8.77 -2.419,-0.01 -6.256,0.56 -7.972,-1.6 -2.912,-3.68 -0.035,-12.976 -0.028,-17.4 0.027,-17.002 1.597,-34.009 2.015,-51 0.103,-4.224 -0.654,-17.218 2.588,-20.012 5.96,-5.133 23.875,-2.088 31.397,-2.317 M 332,1000 c 13.912,1.8 17.292,11.12 14.319,24 -4.59,19.9 -15.745,38.69 -22.319,58 h -2 c -4.923,-17.09 -13.992,-34.73 -21.306,-51 -3.094,-6.88 -8.299,-15.2 -9.395,-22.71 -1.198,-8.21 17.198,-5.65 14.949,-12.876 -1.356,-4.359 -11.143,-2.066 -14.248,-1.7 -11.297,1.333 -22.658,0.824 -34,1.325 -3.987,0.177 -9.771,0.699 -11.534,5.001 -0.815,1.99 -0.023,3.47 1.701,4.54 8.274,5.16 11.799,8.08 15.833,17.42 9.93,22.99 19.83,46 29.719,69 2.896,6.74 5.734,20.74 12.494,24.53 6.58,3.69 22.386,0.34 29.787,-0.36 21.519,-2.05 43.394,-3.21 65,-4.13 23.972,-1.02 48.022,-3.44 72,-4.03 5.042,-0.12 21.492,0.94 23.654,-5.23 0.984,-2.8 -2.763,-3.55 -4.659,-3.72 -7.207,-0.66 -11.716,-1.67 -11.98,-10.06 -0.907,-28.91 -0.253,-58.14 1.004,-87 0.369,-8.471 7.822,-7.277 13.832,-10.225 1.826,-0.895 3.729,-3.007 1.526,-4.763 C 490.25,981.128 471.475,986 464,986 c -32.233,0.002 -64.783,2.629 -97,4.039 -10.428,0.457 -32.189,-2.868 -35,9.961 m 105,-4.459 c 4.624,-0.356 11.087,-0.754 14.048,3.687 3.628,5.442 1.896,16.552 1.813,22.772 -0.23,17.31 -0.451,34.87 0.059,52.17 0.218,7.4 3.435,25.54 -6.925,26.72 -6.014,0.69 -21.992,3.47 -26.392,-1.4 C 415.673,1095.13 418,1082.55 418,1077 v -57 c 0,-5.27 -2.205,-17.07 1.028,-21.436 3.085,-4.166 13.391,-2.67 17.972,-3.023 m -61,2.764 c 13.703,-1.879 12.984,9.805 13,19.695 0.033,20.63 1,41.29 1,62 0,8.16 3.414,22.33 -7.004,24.24 -12.977,2.38 -27.783,2.14 -40.996,2.72 -4.104,0.18 -10.516,1.05 -12.972,-3.11 -4.07,-6.89 3.799,-19.42 6.372,-25.85 7.98,-19.95 15.416,-40.14 23.611,-60 3.505,-8.5 6.635,-18.276 16.989,-19.695 m 237,78.695 -1,-1 c 6.415,-13.56 17.171,-25.66 25.659,-38 3.081,-4.48 8.25,-9.63 9.58,-15 1.346,-5.44 -6.563,-11.14 -11.239,-12.19 -5.116,-1.15 -9.706,4.61 -12.391,8.19 -7.962,10.62 -15.33,21.95 -22.685,33 -20.471,30.75 -67.273,76.99 -34.474,114.91 3.896,4.5 9.199,8.58 14.55,11.19 34.604,16.86 81.915,-8.1 85.829,-47.1 3.093,-30.81 -20.371,-61.97 -53.829,-54 m -5.286,22.44 c 36.656,-5.09 45.661,55.83 9.286,60.37 -8.825,1.11 -18.083,0 -24.985,-6.02 -18.576,-16.22 -9.148,-50.9 15.699,-54.35 z"
       id="path837" />
    <circle
       style="opacity:0.3;fill:#000000;stroke-width:5.24225;stroke-linecap:round;stroke-linejoin:round;stroke-opacity:0.5"
       id="path852"
       cx="600"
       cy="600"
       r="60" />
    <circle
       style="opacity:1;fill:#000000;stroke-width:2.62112;stroke-linecap:round;stroke-linejoin:round;stroke-opacity:0.5"
       id="circle854"
       cx="600"
       cy="600"
       r="30" />
  </g>
</svg>
