<?xml version="1.0" encoding="UTF-8" standalone="no"?>
<svg
   xmlns:dc="http://purl.org/dc/elements/1.1/"
   xmlns:cc="http://creativecommons.org/ns#"
   xmlns:rdf="http://www.w3.org/1999/02/22-rdf-syntax-ns#"
   xmlns:svg="http://www.w3.org/2000/svg"
   xmlns="http://www.w3.org/2000/svg"
   id="svg8"
   version="1.1"
   viewBox="0 0 1024 1024"
   height="1024mm"
   width="1024mm">
  <defs
     id="defs2" />
  <metadata
     id="metadata5">
    <rdf:RDF>
      <cc:Work
         rdf:about="">
        <dc:format>image/svg+xml</dc:format>
        <dc:type
           rdf:resource="http://purl.org/dc/dcmitype/StillImage" />
        <dc:title></dc:title>
      </cc:Work>
    </rdf:RDF>
  </metadata>
  <g
     id="g975">
    <path
       d="m 478.33522,531.45676 a 38.888279,38.887703 0 0 1 14.23407,-53.12162 38.888279,38.887703 0 0 1 53.1224,14.23391 38.888279,38.887703 0 0 1 -14.23408,53.12157 38.888279,38.887703 0 0 1 -53.12239,-14.23386 z"
       style="display:inline;opacity:0.5;fill:none;fill-opacity:1;stroke:#000000;stroke-width:4.25738001;stroke-linecap:round;stroke-linejoin:round;stroke-miterlimit:4;stroke-dasharray:none;stroke-opacity:1"
       id="path1090" />
    <path
       d="m 488.26437,525.73772 a 27.432055,27.432371 0 0 1 10.0408,-37.47333 27.432055,27.432371 0 0 1 37.4729,10.04095 27.432055,27.432371 0 0 1 -10.04082,37.4733 27.432055,27.432371 0 0 1 -37.47288,-10.04092 z"
       style="opacity:1;fill:#000000;fill-opacity:1;stroke:none;stroke-width:0;stroke-linecap:round;stroke-linejoin:round;stroke-miterlimit:4;stroke-dasharray:none;stroke-opacity:1"
       id="path947-7" />
    <g
       id="flowRoot861"
       style="font-size:40px;line-height:1.25;font-family:sans-serif;letter-spacing:0px;word-spacing:0px"
       transform="matrix(4.5459188,0,0,4.5459188,-7013.1589,712.30262)"
       aria-label="12">
      <path
         id="path1238"
         style="font-style:normal;font-variant:normal;font-weight:bold;font-stretch:normal;font-size:27.93714523px;font-family:Ubuntu;-inkscape-font-specification:'Ubuntu Bold';text-align:center;text-anchor:middle"
         d="m 1641.5971,-148.06163 q 0.8102,-0.33524 1.6762,-0.7543 0.894,-0.44699 1.7321,-0.94986 0.8381,-0.53081 1.5924,-1.08955 0.7823,-0.58668 1.3969,-1.22923 h 2.9055 v 19.36044 h -4.1627 v -13.94064 q -0.8381,0.55874 -1.8718,1.03368 -1.0336,0.44699 -2.0114,0.78224 z" />
      <path
         id="path1240"
         style="font-style:normal;font-variant:normal;font-weight:bold;font-stretch:normal;font-size:27.93714523px;font-family:Ubuntu;-inkscape-font-specification:'Ubuntu Bold';text-align:center;text-anchor:middle"
         d="m 1669.3666,-147.00001 q 0,1.06161 -0.4191,2.03941 -0.419,0.9778 -1.0895,1.89972 -0.6705,0.89399 -1.5086,1.73211 -0.8381,0.83811 -1.6483,1.59241 -0.4191,0.39112 -0.9219,0.89399 -0.475,0.47493 -0.922,0.9778 -0.447,0.50287 -0.8101,0.94986 -0.3353,0.41906 -0.4191,0.69843 h 8.3253 v 3.49215 h -12.907 q -0.056,-0.30731 -0.056,-0.78224 0,-0.47493 0,-0.67049 0,-1.34099 0.4191,-2.45847 0.447,-1.11749 1.1454,-2.06735 0.6984,-0.9778 1.5645,-1.81592 0.894,-0.83811 1.76,-1.67623 0.6705,-0.64255 1.2572,-1.20129 0.5867,-0.58668 1.0337,-1.11749 0.447,-0.55874 0.6984,-1.08955 0.2514,-0.55874 0.2514,-1.11748 0,-1.22924 -0.6984,-1.73211 -0.6984,-0.50286 -1.7321,-0.50286 -0.7543,0 -1.4248,0.25143 -0.6425,0.2235 -1.2013,0.55874 -0.5308,0.30731 -0.9219,0.64256 -0.3911,0.30731 -0.5867,0.50287 l -2.0673,-2.90547 q 1.2292,-1.14542 2.8496,-1.87179 1.6482,-0.7543 3.52,-0.7543 1.7042,0 2.9334,0.39112 1.2293,0.39112 2.0115,1.11749 0.8102,0.69843 1.1734,1.7321 0.3911,1.00574 0.3911,2.29085 z" />
    </g>
    <g
       id="flowRoot861-7"
       style="font-size:40px;line-height:1.25;font-family:sans-serif;letter-spacing:0px;word-spacing:0px"
       transform="matrix(4.5459188,0,0,4.5459188,-6787.1989,769.19368)"
       aria-label="1">
      <path
         id="path1243"
         style="font-style:normal;font-variant:normal;font-weight:bold;font-stretch:normal;font-size:27.93714523px;font-family:Ubuntu;-inkscape-font-specification:'Ubuntu Bold';text-align:center;text-anchor:middle"
         d="m 1649.5312,-148.06163 q 0.8102,-0.33524 1.6763,-0.7543 0.8939,-0.44699 1.7321,-0.94986 0.8381,-0.53081 1.5924,-1.08955 0.7822,-0.58668 1.3968,-1.22923 h 2.9055 v 19.36044 h -4.1626 v -13.94064 q -0.8381,0.55874 -1.8718,1.03368 -1.0337,0.44699 -2.0115,0.78224 z" />
    </g>
    <g
       id="flowRoot861-7-2"
       style="font-size:40px;line-height:1.25;font-family:sans-serif;letter-spacing:0px;word-spacing:0px"
       transform="matrix(4.5459188,0,0,4.5459188,-7236.2984,768.12154)"
       aria-label="11">
      <path
         id="path1294"
         style="font-style:normal;font-variant:normal;font-weight:bold;font-stretch:normal;font-size:27.93714523px;font-family:Ubuntu;-inkscape-font-specification:'Ubuntu Bold';text-align:center;text-anchor:middle"
         d="m 1641.5971,-148.06163 q 0.8102,-0.33524 1.6762,-0.7543 0.894,-0.44699 1.7321,-0.94986 0.8381,-0.53081 1.5924,-1.08955 0.7823,-0.58668 1.3969,-1.22923 h 2.9055 v 19.36044 h -4.1627 v -13.94064 q -0.8381,0.55874 -1.8718,1.03368 -1.0336,0.44699 -2.0114,0.78224 z" />
      <path
         id="path1296"
         style="font-style:normal;font-variant:normal;font-weight:bold;font-stretch:normal;font-size:27.93714523px;font-family:Ubuntu;-inkscape-font-specification:'Ubuntu Bold';text-align:center;text-anchor:middle"
         d="m 1657.4654,-148.06163 q 0.8101,-0.33524 1.6762,-0.7543 0.894,-0.44699 1.7321,-0.94986 0.8381,-0.53081 1.5924,-1.08955 0.7823,-0.58668 1.3969,-1.22923 h 2.9054 v 19.36044 h -4.1626 v -13.94064 q -0.8381,0.55874 -1.8718,1.03368 -1.0337,0.44699 -2.0115,0.78224 z" />
    </g>
    <g
       id="flowRoot936"
       style="font-size:40px;line-height:1.25;font-family:sans-serif;letter-spacing:0px;word-spacing:0px"
       transform="matrix(4.5459188,0,0,4.5459188,-7398.4497,930.6513)"
       aria-label="10">
      <path
         id="path1289"
         style="font-style:normal;font-variant:normal;font-weight:bold;font-stretch:normal;font-size:27.93714523px;font-family:Ubuntu;-inkscape-font-specification:'Ubuntu Bold';text-align:center;text-anchor:middle"
         d="m 1641.5971,-148.06163 q 0.8102,-0.33524 1.6762,-0.7543 0.894,-0.44699 1.7321,-0.94986 0.8381,-0.53081 1.5924,-1.08955 0.7823,-0.58668 1.3969,-1.22923 h 2.9055 v 19.36044 h -4.1627 v -13.94064 q -0.8381,0.55874 -1.8718,1.03368 -1.0336,0.44699 -2.0114,0.78224 z" />
      <path
         id="path1291"
         style="font-style:normal;font-variant:normal;font-weight:bold;font-stretch:normal;font-size:27.93714523px;font-family:Ubuntu;-inkscape-font-specification:'Ubuntu Bold';text-align:center;text-anchor:middle"
         d="m 1670.4282,-142.44626 q 0,4.889 -1.8718,7.51509 -1.8438,2.59816 -5.1125,2.59816 -3.2686,0 -5.1404,-2.59816 -1.8439,-2.62609 -1.8439,-7.51509 0,-2.43053 0.475,-4.30232 0.5028,-1.87179 1.4248,-3.1569 0.9219,-1.28511 2.207,-1.9556 1.2851,-0.67049 2.8775,-0.67049 3.2687,0 5.1125,2.62609 1.8718,2.59816 1.8718,7.45922 z m -4.2464,0 q 0,-1.45273 -0.1397,-2.62609 -0.1397,-1.2013 -0.447,-2.06735 -0.3073,-0.86605 -0.8381,-1.34098 -0.5308,-0.47493 -1.3131,-0.47493 -0.7822,0 -1.313,0.47493 -0.5029,0.47493 -0.8381,1.34098 -0.3074,0.86605 -0.447,2.06735 -0.1397,1.17336 -0.1397,2.62609 0,1.45273 0.1397,2.65403 0.1396,1.2013 0.447,2.06735 0.3352,0.86605 0.8381,1.34098 0.5308,0.47493 1.313,0.47493 0.7823,0 1.3131,-0.47493 0.5308,-0.47493 0.8381,-1.34098 0.3073,-0.86605 0.447,-2.06735 0.1397,-1.2013 0.1397,-2.65403 z" />
    </g>
    <g
       id="flowRoot944"
       style="font-size:40px;line-height:1.25;font-family:sans-serif;letter-spacing:0px;word-spacing:0px"
       transform="matrix(4.5459188,0,0,4.5459188,-6622.6663,930.6513)"
       aria-label="2">
      <path
         id="path1246"
         style="font-style:normal;font-variant:normal;font-weight:bold;font-stretch:normal;font-size:27.93714523px;font-family:Ubuntu;-inkscape-font-specification:'Ubuntu Bold';text-align:center;text-anchor:middle"
         d="m 1661.4325,-147.00001 q 0,1.06161 -0.4191,2.03941 -0.4191,0.9778 -1.0895,1.89972 -0.6705,0.89399 -1.5087,1.73211 -0.8381,0.83811 -1.6482,1.59241 -0.4191,0.39112 -0.922,0.89399 -0.4749,0.47493 -0.9219,0.9778 -0.447,0.50287 -0.8102,0.94986 -0.3352,0.41906 -0.419,0.69843 h 8.3252 v 3.49215 h -12.9069 q -0.056,-0.30731 -0.056,-0.78224 0,-0.47493 0,-0.67049 0,-1.34099 0.4191,-2.45847 0.447,-1.11749 1.1454,-2.06735 0.6984,-0.9778 1.5645,-1.81592 0.8939,-0.83811 1.76,-1.67623 0.6705,-0.64255 1.2572,-1.20129 0.5867,-0.58668 1.0336,-1.11749 0.447,-0.55874 0.6985,-1.08955 0.2514,-0.55874 0.2514,-1.11748 0,-1.22924 -0.6984,-1.73211 -0.6984,-0.50286 -1.7321,-0.50286 -0.7543,0 -1.4248,0.25143 -0.6426,0.2235 -1.2013,0.55874 -0.5308,0.30731 -0.9219,0.64256 -0.3912,0.30731 -0.5867,0.50287 l -2.0674,-2.90547 q 1.2293,-1.14542 2.8496,-1.87179 1.6483,-0.7543 3.5201,-0.7543 1.7042,0 2.9334,0.39112 1.2292,0.39112 2.0115,1.11749 0.8102,0.69843 1.1733,1.7321 0.3912,1.00574 0.3912,2.29085 z" />
    </g>
    <g
       id="flowRoot952"
       style="font-size:40px;line-height:1.25;font-family:sans-serif;letter-spacing:0px;word-spacing:0px"
       transform="matrix(4.5459188,0,0,4.5459188,-7460.5135,1158.8231)"
       aria-label="9">
      <path
         id="path1286"
         style="font-style:normal;font-variant:normal;font-weight:bold;font-stretch:normal;font-size:27.93714523px;font-family:Ubuntu;-inkscape-font-specification:'Ubuntu Bold';text-align:center;text-anchor:middle"
         d="m 1655.6495,-143.11675 q 0.6425,0 1.3409,-0.11175 0.6985,-0.13969 1.0337,-0.36318 v -0.25144 q 0,-0.11175 0,-0.22349 0.028,-0.11175 0.028,-0.19556 -0.028,-1.00574 -0.1677,-1.87179 -0.1396,-0.89399 -0.4749,-1.53655 -0.3352,-0.67049 -0.9219,-1.03367 -0.5588,-0.39112 -1.3969,-0.39112 -0.6705,0 -1.1733,0.27937 -0.5029,0.27937 -0.8102,0.72637 -0.3073,0.44699 -0.4749,0.9778 -0.1397,0.5308 -0.1397,1.03367 0,1.50861 0.7263,2.23497 0.7543,0.72637 2.4306,0.72637 z m 2.0394,2.7099 q -0.5867,0.27937 -1.3131,0.41906 -0.6984,0.11175 -1.2013,0.11175 -1.8159,0 -3.101,-0.41906 -1.2851,-0.44699 -2.1232,-1.22923 -0.8102,-0.81018 -1.2013,-1.92767 -0.3911,-1.11748 -0.3911,-2.45847 0,-1.11748 0.3632,-2.29084 0.3911,-1.17336 1.2013,-2.12322 0.8101,-0.9778 2.0394,-1.59242 1.2571,-0.64256 3.0172,-0.64256 3.6039,0 5.4198,2.23498 1.8438,2.20703 1.8438,6.36966 0,2.73784 -0.7263,4.83313 -0.6985,2.09529 -2.2071,3.52008 -1.4806,1.4248 -3.7994,2.1791 -2.3188,0.72636 -5.5036,0.7543 -0.028,-0.89399 -0.084,-1.7321 -0.056,-0.83812 -0.1118,-1.73211 1.5924,-0.0279 2.8775,-0.22349 1.2851,-0.2235 2.2629,-0.69843 0.9778,-0.50287 1.6483,-1.31305 0.6985,-0.81017 1.0896,-2.03941 z" />
    </g>
    <g
       id="flowRoot960"
       style="font-size:40px;line-height:1.25;font-family:sans-serif;letter-spacing:0px;word-spacing:0px"
       transform="matrix(4.5459188,0,0,4.5459188,-6554.6306,1158.8231)"
       aria-label="3">
      <path
         id="path1249"
         style="font-style:normal;font-variant:normal;font-weight:bold;font-stretch:normal;font-size:27.93714523px;font-family:Ubuntu;-inkscape-font-specification:'Ubuntu Bold';text-align:center;text-anchor:middle"
         d="m 1653.9453,-132.30508 q -0.7543,0 -1.5924,-0.11174 -0.8381,-0.0838 -1.6204,-0.25144 -0.7822,-0.16762 -1.4248,-0.36318 -0.6425,-0.19556 -1.0057,-0.36318 l 0.8102,-3.46421 q 0.7263,0.30731 1.8438,0.67049 1.1454,0.33525 2.8217,0.33525 1.9276,0 2.8216,-0.72637 0.894,-0.72637 0.894,-1.9556 0,-0.7543 -0.3352,-1.25717 -0.3073,-0.53081 -0.8661,-0.83812 -0.5587,-0.33524 -1.341,-0.44699 -0.7543,-0.13969 -1.6203,-0.13969 h -1.6204 v -3.35245 h 1.8439 q 0.6146,0 1.1733,-0.11175 0.5867,-0.11175 1.0337,-0.36318 0.447,-0.27938 0.6984,-0.72637 0.2794,-0.47493 0.2794,-1.17336 0,-0.53081 -0.2235,-0.92193 -0.2235,-0.39112 -0.5867,-0.64255 -0.3352,-0.25143 -0.8101,-0.36318 -0.447,-0.13969 -0.922,-0.13969 -1.2013,0 -2.2349,0.36318 -1.0058,0.36319 -1.8439,0.89399 l -1.4807,-3.04515 q 0.447,-0.27937 1.0337,-0.58668 0.6146,-0.3073 1.341,-0.55874 0.7264,-0.25143 1.5365,-0.41906 0.8382,-0.16762 1.7601,-0.16762 1.7041,0 2.9334,0.41906 1.2572,0.39112 2.0673,1.14542 0.8102,0.72637 1.2013,1.7321 0.3912,0.9778 0.3912,2.15116 0,1.14543 -0.6426,2.23498 -0.6426,1.06161 -1.7321,1.62035 1.5086,0.61462 2.3188,1.84385 0.8381,1.2013 0.8381,2.90546 0,1.34099 -0.447,2.48641 -0.447,1.11749 -1.3969,1.9556 -0.9498,0.81018 -2.4305,1.28511 -1.4527,0.44699 -3.4642,0.44699 z" />
    </g>
    <g
       id="flowRoot968"
       style="font-size:40px;line-height:1.25;font-family:sans-serif;letter-spacing:0px;word-spacing:0px"
       transform="matrix(4.5459188,0,0,4.5459188,-6622.6663,1390.5223)"
       aria-label="4">
      <path
         id="path1271"
         style="font-style:normal;font-variant:normal;font-weight:bold;font-stretch:normal;font-size:27.93714523px;font-family:Ubuntu;-inkscape-font-specification:'Ubuntu Bold';text-align:center;text-anchor:middle"
         d="m 1656.4876,-147.00001 q -1.0896,1.42479 -2.3188,3.10102 -1.2292,1.67623 -2.0674,3.43627 h 4.3862 z m 4.0788,-5.08456 v 11.62185 h 2.0674 v 3.40833 h -2.0674 v 4.33026 h -4.0788 v -4.33026 h -8.3532 v -3.04515 q 0.6146,-1.22923 1.5365,-2.76578 0.9219,-1.56448 2.0394,-3.18483 1.1455,-1.64829 2.4026,-3.21277 1.2572,-1.56448 2.5144,-2.82165 z" />
    </g>
    <g
       id="flowRoot976"
       style="font-size:40px;line-height:1.25;font-family:sans-serif;letter-spacing:0px;word-spacing:0px"
       transform="matrix(4.5459188,0,0,4.5459188,-7398.4497,1382.9628)"
       aria-label="8">
      <path
         id="path1283"
         style="font-style:normal;font-variant:normal;font-weight:bold;font-stretch:normal;font-size:27.93714523px;font-family:Ubuntu;-inkscape-font-specification:'Ubuntu Bold';text-align:center;text-anchor:middle"
         d="m 1662.3823,-138.116 q 0,1.25717 -0.447,2.31878 -0.419,1.03368 -1.2851,1.81592 -0.866,0.78224 -2.1791,1.22923 -1.2851,0.41906 -2.9893,0.41906 -1.9556,0 -3.2686,-0.53081 -1.2851,-0.55874 -2.0953,-1.36892 -0.7822,-0.81018 -1.1175,-1.76004 -0.3352,-0.9778 -0.3352,-1.78798 0,-0.83811 0.2235,-1.53654 0.2235,-0.69843 0.6146,-1.25717 0.3911,-0.58668 0.866,-1.06161 0.5029,-0.47493 1.0617,-0.89399 -1.2013,-0.9778 -1.788,-1.92766 -0.5588,-0.94987 -0.5588,-2.43054 0,-1.11748 0.447,-2.15116 0.475,-1.03367 1.3131,-1.78797 0.8381,-0.78224 2.0115,-1.22924 1.2012,-0.47493 2.654,-0.47493 1.7041,0 2.9054,0.50287 1.2293,0.47493 2.0115,1.22923 0.7823,0.75431 1.1175,1.70417 0.3632,0.92193 0.3632,1.84385 0,1.34098 -0.7264,2.51434 -0.6984,1.14543 -1.76,1.81592 1.5924,1.03367 2.2629,2.1791 0.6984,1.11748 0.6984,2.62609 z m -9.6662,0.16762 q 0,0.33525 0.1397,0.7543 0.1676,0.39112 0.5028,0.72637 0.3353,0.33524 0.8661,0.55874 0.5308,0.2235 1.2851,0.2235 1.4527,0 2.1232,-0.69843 0.6705,-0.69843 0.6705,-1.56448 0,-0.64255 -0.3073,-1.14542 -0.2794,-0.50287 -0.7823,-0.86605 -0.5028,-0.39112 -1.2013,-0.6705 -0.6704,-0.3073 -1.4527,-0.55874 -0.7822,0.58668 -1.313,1.36892 -0.5308,0.78224 -0.5308,1.87179 z m 5.1683,-9.19132 q 0,-0.30731 -0.1396,-0.64255 -0.1118,-0.36319 -0.4191,-0.6705 -0.2794,-0.3073 -0.7264,-0.50286 -0.447,-0.2235 -1.0895,-0.2235 -0.6146,0 -1.0616,0.19556 -0.447,0.19556 -0.7543,0.5308 -0.2794,0.30731 -0.4191,0.6705 -0.1397,0.36318 -0.1397,0.69842 0,0.89399 0.6426,1.67623 0.6705,0.78224 2.2629,1.34099 0.894,-0.55875 1.3689,-1.28511 0.4749,-0.72637 0.4749,-1.78798 z" />
    </g>
    <g
       id="flowRoot984"
       style="font-size:40px;line-height:1.25;font-family:sans-serif;letter-spacing:0px;word-spacing:0px"
       transform="matrix(4.5459188,0,0,4.5459188,-6787.1989,1549.6645)"
       aria-label="5">
      <path
         id="path1274"
         style="font-style:normal;font-variant:normal;font-weight:bold;font-stretch:normal;font-size:27.93714523px;font-family:Ubuntu;-inkscape-font-specification:'Ubuntu Bold';text-align:center;text-anchor:middle"
         d="m 1657.633,-138.42331 q 0,-0.81018 -0.3632,-1.4248 -0.3632,-0.64255 -1.2572,-1.06161 -0.8939,-0.41905 -2.4025,-0.64255 -1.5087,-0.2235 -3.7995,-0.2235 0.3073,-2.59815 0.5029,-5.28012 0.1955,-2.68196 0.3073,-5.02868 h 10.4764 v 3.49214 h -6.9843 q -0.056,1.00574 -0.1397,1.9556 -0.056,0.92192 -0.1396,1.62035 4.0788,0.27937 6.0064,1.92767 1.9556,1.62035 1.9556,4.52581 0,1.34099 -0.4749,2.48641 -0.4749,1.14542 -1.4248,1.98354 -0.9498,0.83811 -2.4026,1.31304 -1.4248,0.47493 -3.3524,0.47493 -0.7543,0 -1.5925,-0.11174 -0.8101,-0.0838 -1.5924,-0.25144 -0.7543,-0.13968 -1.3689,-0.30731 -0.6146,-0.16762 -0.9499,-0.33524 l 0.7543,-3.43627 q 0.6985,0.30731 1.8439,0.61461 1.1454,0.27938 2.7378,0.27938 1.9277,0 2.7938,-0.75431 0.866,-0.78224 0.866,-1.81591 z" />
    </g>
    <g
       id="flowRoot992"
       style="font-size:40px;line-height:1.25;font-family:sans-serif;letter-spacing:0px;word-spacing:0px"
       transform="matrix(4.5459188,0,0,4.5459188,-7235.7306,1549.6645)"
       aria-label="7">
      <path
         id="path1280"
         style="font-style:normal;font-variant:normal;font-weight:bold;font-stretch:normal;font-size:27.93714523px;font-family:Ubuntu;-inkscape-font-specification:'Ubuntu Bold';text-align:center;text-anchor:middle"
         d="m 1651.5427,-132.72413 q 0.1676,-2.03941 0.6984,-4.24645 0.5308,-2.20703 1.2851,-4.33026 0.7823,-2.12322 1.7321,-3.99501 0.9499,-1.89972 1.9277,-3.26864 h -8.4091 v -3.54802 h 13.5495 v 3.01721 q -0.8939,0.9778 -1.9835,2.7099 -1.0616,1.73211 -2.0394,3.93914 -0.9499,2.1791 -1.6762,4.69344 -0.6985,2.51434 -0.8661,5.02869 z" />
    </g>
    <g
       id="flowRoot1000"
       style="font-size:40px;line-height:1.25;font-family:sans-serif;letter-spacing:0px;word-spacing:0px"
       transform="matrix(4.5459188,0,0,4.5459188,-7012.12,1609.4608)"
       aria-label="6">
      <path
         id="path1277"
         style="font-style:normal;font-variant:normal;font-weight:bold;font-stretch:normal;font-size:27.93714523px;font-family:Ubuntu;-inkscape-font-specification:'Ubuntu Bold';text-align:center;text-anchor:middle"
         d="m 1655.2304,-141.83164 q -0.6146,0 -1.313,0.11175 -0.6985,0.11174 -1.0896,0.3073 0,0.11175 -0.028,0.33525 0,0.2235 0,0.39112 0,1.00574 0.1397,1.89973 0.1396,0.89398 0.4749,1.56448 0.3352,0.67049 0.894,1.06161 0.5587,0.36318 1.3968,0.36318 0.6985,0 1.1734,-0.27937 0.5029,-0.30731 0.8102,-0.7543 0.3352,-0.447 0.4749,-0.9778 0.1676,-0.55875 0.1676,-1.06162 0,-1.42479 -0.7263,-2.17909 -0.6985,-0.78224 -2.3747,-0.78224 z m 0.5308,-3.24071 q 1.8159,0 3.0731,0.50287 1.2851,0.47493 2.0953,1.31304 0.8102,0.83812 1.1733,1.9556 0.3632,1.11749 0.3632,2.37466 0,1.11749 -0.419,2.29085 -0.3911,1.17336 -1.2293,2.12322 -0.8101,0.94986 -2.0952,1.56448 -1.2572,0.61462 -2.9893,0.61462 -3.4922,0 -5.3081,-2.20704 -1.8159,-2.20703 -1.8159,-6.0903 0,-2.79371 0.8661,-4.94487 0.866,-2.15116 2.4584,-3.60389 1.6204,-1.48067 3.8833,-2.23497 2.2908,-0.78224 5.1404,-0.81018 0.056,0.86605 0.1118,1.70417 0.056,0.81017 0.1117,1.70416 -1.4248,0.0279 -2.6819,0.27937 -1.2293,0.2235 -2.263,0.72637 -1.0057,0.50287 -1.76,1.31304 -0.7543,0.78224 -1.1734,1.92767 0.6147,-0.27937 1.2572,-0.39112 0.6426,-0.11175 1.2013,-0.11175 z" />
    </g>
  </g>
</svg>
