<?xml version="1.0" encoding="UTF-8" standalone="no"?>
<svg
   xmlns:dc="http://purl.org/dc/elements/1.1/"
   xmlns:cc="http://creativecommons.org/ns#"
   xmlns:rdf="http://www.w3.org/1999/02/22-rdf-syntax-ns#"
   xmlns:svg="http://www.w3.org/2000/svg"
   xmlns="http://www.w3.org/2000/svg"
   width="1024mm"
   height="1024mm"
   viewBox="0 0 1024 1024"
   version="1.1"
   id="svg8">
  <defs
     id="defs2" />
  <metadata
     id="metadata5">
    <rdf:RDF>
      <cc:Work
         rdf:about="">
        <dc:format>image/svg+xml</dc:format>
        <dc:type
           rdf:resource="http://purl.org/dc/dcmitype/StillImage" />
        <dc:title></dc:title>
      </cc:Work>
    </rdf:RDF>
  </metadata>
  <g
     id="g975">
    <path
       id="path907"
       style="opacity:1;fill:#000000;fill-opacity:1;stroke:#000000;stroke-width:28.1046;stroke-linecap:round;stroke-linejoin:miter;stroke-miterlimit:4;stroke-dasharray:none;stroke-opacity:1"
       d="m 1946.7832,96.246094 c -39.6887,68.742866 -83.6914,102.873986 -83.6914,149.095706 0,46.22171 37.4697,83.6914 83.6914,83.6914 46.2217,0 83.6934,-37.46969 83.6934,-83.6914 0,-46.22172 -46.0699,-83.92991 -83.6934,-149.095706 z m -0.012,99.144526 a 49.950214,49.950214 0 0 1 0.012,0 49.950214,49.950214 0 0 1 49.9512,49.95118 49.950214,49.950214 0 0 1 -49.9512,49.94922 49.950214,49.950214 0 0 1 -49.9492,-49.94922 49.950214,49.950214 0 0 1 49.9375,-49.95118 z"
       transform="scale(0.26458333)" />
    <path
       id="path947-7"
       style="opacity:1;fill:#000000;fill-opacity:1;stroke:none;stroke-width:0;stroke-linecap:round;stroke-linejoin:round;stroke-miterlimit:4;stroke-dasharray:none;stroke-opacity:1"
       d="m 488.26437,525.73772 a 27.432055,27.432371 0 0 1 10.0408,-37.47333 27.432055,27.432371 0 0 1 37.4729,10.04095 27.432055,27.432371 0 0 1 -10.04082,37.4733 27.432055,27.432371 0 0 1 -37.47288,-10.04092 z" />
    <path
       id="path947"
       style="opacity:1;fill:#000000;fill-opacity:1;stroke:#000000;stroke-width:12;stroke-linecap:round;stroke-linejoin:round;stroke-miterlimit:4;stroke-dasharray:none;stroke-opacity:1"
       d="m 277.40695,132.58866 a 14.88866,14.88866 0 0 1 5.44962,-20.33829 14.88866,14.88866 0 0 1 20.33829,5.44963 14.88866,14.88866 0 0 1 -5.44962,20.33828 14.88866,14.88866 0 0 1 -20.33829,-5.44962 z" />
    <path
       id="path945"
       style="opacity:1;fill:#000000;fill-opacity:1;stroke:#000000;stroke-width:12;stroke-linecap:round;stroke-linejoin:round;stroke-miterlimit:4;stroke-dasharray:none;stroke-opacity:1"
       d="m 726.97794,911.26928 a 14.88866,14.88866 0 0 1 5.44963,-20.33828 14.88866,14.88866 0 0 1 20.33829,5.44962 14.88866,14.88866 0 0 1 -5.44963,20.33828 14.88866,14.88866 0 0 1 -20.33829,-5.44962 z" />
    <path
       id="path943"
       style="opacity:1;fill:#000000;fill-opacity:1;stroke:#000000;stroke-width:12;stroke-linecap:round;stroke-linejoin:round;stroke-miterlimit:4;stroke-dasharray:none;stroke-opacity:1"
       d="m 118.30196,302.59274 a 14.88866,14.88866 0 0 1 -5.44962,-20.33828 14.88866,14.88866 0 0 1 20.33829,-5.44964 14.88866,14.88866 0 0 1 5.44963,20.33829 14.88866,14.88866 0 0 1 -20.3383,5.44963 z" />
    <path
       id="path941"
       style="opacity:1;fill:#000000;fill-opacity:1;stroke:#000000;stroke-width:12;stroke-linecap:round;stroke-linejoin:round;stroke-miterlimit:4;stroke-dasharray:none;stroke-opacity:1"
       d="m 896.98219,752.16445 a 14.88866,14.88866 0 0 1 -5.44964,-20.33829 14.88866,14.88866 0 0 1 20.33829,-5.44962 14.88866,14.88866 0 0 1 5.44962,20.33828 14.88866,14.88866 0 0 1 -20.33827,5.44963 z" />
    <path
       id="path939"
       style="opacity:1;fill:#000000;fill-opacity:1;stroke:#000000;stroke-width:12;stroke-linecap:round;stroke-linejoin:round;stroke-miterlimit:4;stroke-dasharray:none;stroke-opacity:1"
       d="M 65.515054,529.37309 A 14.88866,14.88866 0 0 1 50.626391,514.48443 14.88866,14.88866 0 0 1 65.515057,499.59577 14.88866,14.88866 0 0 1 80.403715,514.48442 14.88866,14.88866 0 0 1 65.515054,529.37309 Z" />
    <path
       id="path937"
       style="opacity:1;fill:#000000;fill-opacity:1;stroke:#000000;stroke-width:12;stroke-linecap:round;stroke-linejoin:round;stroke-miterlimit:4;stroke-dasharray:none;stroke-opacity:1"
       d="m 964.65775,529.3735 a 14.88866,14.88866 0 0 1 -14.88865,-14.88866 14.88866,14.88866 0 0 1 14.88865,-14.88866 14.88866,14.88866 0 0 1 14.88866,14.88866 14.88866,14.88866 0 0 1 -14.88866,14.88866 z" />
    <path
       id="path935"
       style="opacity:1;fill:#000000;fill-opacity:1;stroke:#000000;stroke-width:12;stroke-linecap:round;stroke-linejoin:round;stroke-miterlimit:4;stroke-dasharray:none;stroke-opacity:1"
       d="m 133.19042,752.16409 a 14.88866,14.88866 0 0 1 -20.33828,-5.44963 14.88866,14.88866 0 0 1 5.44962,-20.33829 14.88866,14.88866 0 0 1 20.33829,5.44963 14.88866,14.88866 0 0 1 -5.44963,20.33829 z" />
    <path
       id="path933"
       style="opacity:1;fill:#000000;fill-opacity:1;stroke:#000000;stroke-width:12;stroke-linecap:round;stroke-linejoin:round;stroke-miterlimit:4;stroke-dasharray:none;stroke-opacity:1"
       d="m 911.87105,302.59309 a 14.88866,14.88866 0 0 1 -20.33829,-5.44962 14.88866,14.88866 0 0 1 5.44963,-20.33829 14.88866,14.88866 0 0 1 20.33828,5.44963 14.88866,14.88866 0 0 1 -5.44962,20.33828 z" />
    <path
       id="path931"
       style="opacity:1;fill:#000000;fill-opacity:1;stroke:#000000;stroke-width:12;stroke-linecap:round;stroke-linejoin:round;stroke-miterlimit:4;stroke-dasharray:none;stroke-opacity:1"
       d="m 303.19451,911.26907 a 14.88866,14.88866 0 0 1 -20.33829,5.44963 14.88866,14.88866 0 0 1 -5.44962,-20.33829 14.88866,14.88866 0 0 1 20.33828,-5.44963 14.88866,14.88866 0 0 1 5.44963,20.33829 z" />
    <path
       id="path929"
       style="opacity:1;fill:#000000;fill-opacity:1;stroke:#000000;stroke-width:12;stroke-linecap:round;stroke-linejoin:round;stroke-miterlimit:4;stroke-dasharray:none;stroke-opacity:1"
       d="m 752.76621,132.58886 a 14.88866,14.88866 0 0 1 -20.33828,5.44962 14.88866,14.88866 0 0 1 -5.44963,-20.33828 14.88866,14.88866 0 0 1 20.33829,-5.44963 14.88866,14.88866 0 0 1 5.44962,20.33829 z" />
    <path
       id="path907-6"
       style="opacity:1;fill:#000000;fill-opacity:1;stroke:#000000;stroke-width:12;stroke-linecap:round;stroke-linejoin:round;stroke-miterlimit:4;stroke-dasharray:none;stroke-opacity:1"
       d="m 529.97486,964.05598 a 14.88866,14.88866 0 0 1 -14.88866,14.88866 14.88866,14.88866 0 0 1 -14.88866,-14.88866 14.88866,14.88866 0 0 1 14.88866,-14.88866 14.88866,14.88866 0 0 1 14.88866,14.88866 z" />
    <path
       id="path951"
       style="opacity:1;fill:none;fill-opacity:1;stroke:#000000;stroke-width:5;stroke-linecap:round;stroke-linejoin:round;stroke-miterlimit:4;stroke-dasharray:none;stroke-opacity:1"
       d="m 645.82557,84.085579 a 14.88866,14.88866 0 0 1 -18.23481,10.527873 14.88866,14.88866 0 0 1 -10.52787,-18.23481 14.88866,14.88866 0 0 1 18.23481,-10.527873 14.88866,14.88866 0 0 1 10.52787,18.23481 z" />
    <path
       id="path953"
       style="opacity:1;fill:none;fill-opacity:1;stroke:#000000;stroke-width:5;stroke-linecap:round;stroke-linejoin:round;stroke-miterlimit:4;stroke-dasharray:none;stroke-opacity:1"
       d="m 413.10992,952.59062 a 14.88866,14.88866 0 0 1 -18.23481,10.52788 14.88866,14.88866 0 0 1 -10.52787,-18.23481 14.88866,14.88866 0 0 1 18.23481,-10.52788 14.88866,14.88866 0 0 1 10.52787,18.23481 z" />
    <path
       id="path955"
       style="opacity:1;fill:none;fill-opacity:1;stroke:#000000;stroke-width:5;stroke-linecap:round;stroke-linejoin:round;stroke-miterlimit:4;stroke-dasharray:none;stroke-opacity:1"
       d="m 843.50937,207.1177 a 14.88866,14.88866 0 0 1 -21.05574,0 14.88866,14.88866 0 0 1 0,-21.05574 14.88866,14.88866 0 0 1 21.05574,0 14.88866,14.88866 0 0 1 0,21.05574 z" />
    <path
       id="path957"
       style="opacity:1;fill:none;fill-opacity:1;stroke:#000000;stroke-width:5;stroke-linecap:round;stroke-linejoin:round;stroke-miterlimit:4;stroke-dasharray:none;stroke-opacity:1"
       d="m 207.71918,842.90731 a 14.88866,14.88866 0 0 1 -21.05575,0 14.88866,14.88866 0 0 1 1e-5,-21.05574 14.88866,14.88866 0 0 1 21.05574,-1e-5 14.88866,14.88866 0 0 1 0,21.05575 z" />
    <path
       id="path959"
       style="opacity:1;fill:none;fill-opacity:1;stroke:#000000;stroke-width:5;stroke-linecap:round;stroke-linejoin:round;stroke-miterlimit:4;stroke-dasharray:none;stroke-opacity:1"
       d="m 953.19251,412.50854 a 14.88866,14.88866 0 0 1 -18.23482,-10.52786 14.88866,14.88866 0 0 1 10.52788,-18.23481 14.88866,14.88866 0 0 1 18.2348,10.52787 14.88866,14.88866 0 0 1 -10.52786,18.2348 z" />
    <path
       id="path961"
       style="opacity:1;fill:none;fill-opacity:1;stroke:#000000;stroke-width:5;stroke-linecap:round;stroke-linejoin:round;stroke-miterlimit:4;stroke-dasharray:none;stroke-opacity:1"
       d="M 84.68724,645.22341 A 14.88866,14.88866 0 0 1 66.452438,634.69553 14.88866,14.88866 0 0 1 76.980303,616.46072 14.88866,14.88866 0 0 1 95.215115,626.98859 14.88866,14.88866 0 0 1 84.68724,645.22341 Z" />
    <path
       id="path963"
       style="opacity:1;fill:none;fill-opacity:1;stroke:#000000;stroke-width:5;stroke-linecap:round;stroke-linejoin:round;stroke-miterlimit:4;stroke-dasharray:none;stroke-opacity:1"
       d="m 945.48546,645.2238 a 14.88866,14.88866 0 0 1 -10.52787,-18.23481 14.88866,14.88866 0 0 1 18.2348,-10.52787 14.88866,14.88866 0 0 1 10.52788,18.23481 14.88866,14.88866 0 0 1 -18.23481,10.52787 z" />
    <path
       id="path965"
       style="opacity:1;fill:none;fill-opacity:1;stroke:#000000;stroke-width:5;stroke-linecap:round;stroke-linejoin:round;stroke-miterlimit:4;stroke-dasharray:none;stroke-opacity:1"
       d="M 76.98041,412.50815 A 14.88866,14.88866 0 0 1 66.452534,394.27334 14.88866,14.88866 0 0 1 84.68735,383.74547 14.88866,14.88866 0 0 1 95.215223,401.98027 14.88866,14.88866 0 0 1 76.98041,412.50815 Z" />
    <path
       id="path967"
       style="opacity:1;fill:none;fill-opacity:1;stroke:#000000;stroke-width:5;stroke-linecap:round;stroke-linejoin:round;stroke-miterlimit:4;stroke-dasharray:none;stroke-opacity:1"
       d="m 822.45334,842.90761 a 14.88866,14.88866 0 0 1 -10e-6,-21.05575 14.88866,14.88866 0 0 1 21.05575,10e-6 14.88866,14.88866 0 0 1 -1e-5,21.05573 14.88866,14.88866 0 0 1 -21.05573,10e-6 z" />
    <path
       id="path969"
       style="opacity:1;fill:none;fill-opacity:1;stroke:#000000;stroke-width:5;stroke-linecap:round;stroke-linejoin:round;stroke-miterlimit:4;stroke-dasharray:none;stroke-opacity:1"
       d="m 186.66372,207.11741 a 14.88866,14.88866 0 0 1 0,-21.05573 14.88866,14.88866 0 0 1 21.05575,-2e-5 14.88866,14.88866 0 0 1 1e-5,21.05575 14.88866,14.88866 0 0 1 -21.05576,0 z" />
    <path
       id="path971"
       style="opacity:1;fill:none;fill-opacity:1;stroke:#000000;stroke-width:5;stroke-linecap:round;stroke-linejoin:round;stroke-miterlimit:4;stroke-dasharray:none;stroke-opacity:1"
       d="m 617.06249,952.59074 a 14.88866,14.88866 0 0 1 10.52787,-18.2348 14.88866,14.88866 0 0 1 18.23481,10.52786 14.88866,14.88866 0 0 1 -10.52787,18.2348 14.88866,14.88866 0 0 1 -18.23481,-10.52786 z" />
    <path
       id="path973"
       style="opacity:1;fill:none;fill-opacity:1;stroke:#000000;stroke-width:5;stroke-linecap:round;stroke-linejoin:round;stroke-miterlimit:4;stroke-dasharray:none;stroke-opacity:1"
       d="M 384.34763,84.085481 A 14.88866,14.88866 0 0 1 394.8755,65.850667 14.88866,14.88866 0 0 1 413.11031,76.378542 14.88866,14.88866 0 0 1 402.58245,94.613347 14.88866,14.88866 0 0 1 384.34763,84.085481 Z" />
    <path
       id="path1090"
       style="display:inline;opacity:0.5;fill:none;fill-opacity:1;stroke:#000000;stroke-width:4.25738;stroke-linecap:round;stroke-linejoin:round;stroke-miterlimit:4;stroke-dasharray:none;stroke-opacity:1"
       d="m 478.33522,531.45676 a 38.888279,38.887703 0 0 1 14.23407,-53.12162 38.888279,38.887703 0 0 1 53.1224,14.23391 38.888279,38.887703 0 0 1 -14.23408,53.12157 38.888279,38.887703 0 0 1 -53.12239,-14.23386 z" />
  </g>
</svg>
