<?xml version="1.0" encoding="UTF-8" standalone="no"?>
<svg
   xmlns:dc="http://purl.org/dc/elements/1.1/"
   xmlns:cc="http://creativecommons.org/ns#"
   xmlns:rdf="http://www.w3.org/1999/02/22-rdf-syntax-ns#"
   xmlns:svg="http://www.w3.org/2000/svg"
   xmlns="http://www.w3.org/2000/svg"
   data-name="Layer 1"
   id="Layer_1"
   viewBox="0 0 32 32"
   version="1.1">
  <metadata
     id="metadata11">
    <rdf:RDF>
      <cc:Work
         rdf:about="">
        <dc:format>image/svg+xml</dc:format>
        <dc:type
           rdf:resource="http://purl.org/dc/dcmitype/StillImage" />
        <dc:title></dc:title>
      </cc:Work>
    </rdf:RDF>
  </metadata>
  <defs
     id="defs9" />
  <path
     d="M 3,4.61 A -0.84,0.84 0 0 1 3.05,4.44 L 3.11,4.24 A -1.28,1.28 0 0 1 3.22,4.04 -0.55,0.55 0 0 1 3.3,3.89 -1.8,1.8 0 0 1 3.85,3.34 -0.55,0.55 0 0 1 4,3.26 L 4.2,3.15 4.4,3.09 H 4.57 A -1.72,1.72 0 0 1 5,3 h 8 a -2,2 0 0 1 0,4 H 9.83 L 25,22.17 V 19 a -2,2 0 0 1 4,0 v 8 a -1.72,1.72 0 0 1 0,0.39 -0.84,0.84 0 0 1 0,0.17 l -0.06,0.2 a -1.28,1.28 0 0 1 -0.11,0.2 -0.55,0.55 0 0 1 -0.08,0.15 -1.8,1.8 0 0 1 -0.55,0.55 -0.55,0.55 0 0 1 -0.15,0.08 l -0.2,0.11 -0.2,0.06 -0.17,0.05 A -1.72,1.72 0 0 1 27,29 h -8 a -2,2 0 0 1 0,-4 h 3.17 L 7,9.83 V 13 A -2,2 0 0 1 3,13 V 5 A -1.72,1.72 0 0 1 3,4.61 Z"
     id="path4"
     style="fill:#808080" />
</svg>
