<?xml version="1.0" encoding="UTF-8" standalone="no"?>
<svg
   xmlns:dc="http://purl.org/dc/elements/1.1/"
   xmlns:cc="http://creativecommons.org/ns#"
   xmlns:rdf="http://www.w3.org/1999/02/22-rdf-syntax-ns#"
   xmlns:svg="http://www.w3.org/2000/svg"
   xmlns="http://www.w3.org/2000/svg"
   data-name="Layer 1"
   version="1.1"
   viewBox="0 0 32 32"
   id="svg4">
  <metadata
     id="metadata10">
    <rdf:RDF>
      <cc:Work
         rdf:about="">
        <dc:format>image/svg+xml</dc:format>
        <dc:type
           rdf:resource="http://purl.org/dc/dcmitype/StillImage" />
        <dc:title></dc:title>
      </cc:Work>
    </rdf:RDF>
  </metadata>
  <defs
     id="defs8" />
  <path
     d="m 24.082045,21.595286 a 1.7589676,1.7589676 0 0 0 2.487573,0 l 4.353196,-4.353195 a 1.5126534,1.5126534 0 0 0 0.242532,-0.242532 0.73875466,0.73875466 0 0 0 0.07462,-0.136818 l 0.08707,-0.161684 a 1.1257275,1.1257275 0 0 0 0.05597,-0.192787 0.48371316,0.48371316 0 0 0 0.04353,-0.143032 1.5830121,1.5830121 0 0 0 0,-0.684065 1.1345253,1.1345253 0 0 0 -0.03732,-0.149257 l -0.04976,-0.174123 -0.09329,-0.167909 -0.105714,-0.105714 a 1.5126534,1.5126534 0 0 0 -0.217654,-0.329594 l -4.353196,-4.353195 a 1.7589803,1.7589803 0 0 0 -2.487573,2.487574 l 1.349501,1.349501 H 17.757514 V 6.5644234 l 1.349501,1.3495011 A 1.7589803,1.7589803 0 0 0 21.594588,5.4263508 L 17.241393,1.0731555 A 1.5126534,1.5126534 0 0 0 16.998861,0.83062352 L 16.893147,0.7249034 16.725237,0.63162114 16.551114,0.58186967 a 1.1345253,1.1345253 0 0 0 -0.15547,-0.0435308 1.5830121,1.5830121 0 0 0 -0.684065,0 0.48371316,0.48371316 0 0 0 -0.174123,0.074626 1.1257275,1.1257275 0 0 0 -0.192788,0.0559698 l -0.161696,0.0870639 A 0.73875466,0.73875466 0 0 0 15.077258,0.86171878 1.5126534,1.5126534 0 0 0 14.753878,1.073159 l -4.353195,4.3531953 a 1.7589804,1.7589804 0 0 0 2.487574,2.4875738 L 14.237758,6.5644269 V 14.238459 H 6.5637254 L 7.9132265,12.888958 A 1.7589803,1.7589803 0 0 0 5.4256528,10.401384 L 1.0724575,14.75458 A 1.5126534,1.5126534 0 0 0 0.82992553,14.997112 0.73875466,0.73875466 0 0 0 0.7242054,15.102826 l -0.0870639,0.161696 a 1.1257275,1.1257275 0 0 0 -0.0559698,0.192787 0.48371316,0.48371316 0 0 0 -0.0435308,0.143032 1.5830121,1.5830121 0 0 0 0,0.684065 0.72996863,0.72996863 0 0 0 0.0435308,0.15547 l 0.0559698,0.180349 0.0870639,0.161695 0.074626,0.136818 a 1.5126534,1.5126534 0 0 0 0.2736238,0.32338 l 4.3531953,4.353195 A 1.7589803,1.7589803 0 0 0 7.9132242,19.10774 L 6.5637231,17.758239 h 7.6740319 v 7.674032 L 12.888254,24.08277 a 1.7589803,1.7589803 0 0 0 -2.487574,2.487573 l 4.353196,4.353196 a 1.5126534,1.5126534 0 0 0 0.242532,0.242532 l 0.136817,0.07462 0.161685,0.08707 0.180348,0.05597 a 0.72996863,0.72996863 0 0 0 0.15547,0.04353 1.5830121,1.5830121 0 0 0 0.684066,0 0.48371316,0.48371316 0 0 0 0.143031,-0.04353 1.1257275,1.1257275 0 0 0 0.192788,-0.05597 l 0.161695,-0.08707 a 0.73875466,0.73875466 0 0 0 0.136818,-0.07462 1.5126534,1.5126534 0 0 0 0.292288,-0.242532 L 21.59461,26.570343 A 1.7589803,1.7589803 0 0 0 19.107036,24.08277 l -1.349501,1.349501 v -7.674032 h 7.674032 l -1.349501,1.349501 a 1.7589676,1.7589676 0 0 0 0,2.487573 z"
     style="fill:#808080;stroke-width:0.879472"
     id="path2" />
</svg>
