<?xml version="1.0" encoding="UTF-8" standalone="no"?>
<svg
   xmlns:dc="http://purl.org/dc/elements/1.1/"
   xmlns:cc="http://creativecommons.org/ns#"
   xmlns:rdf="http://www.w3.org/1999/02/22-rdf-syntax-ns#"
   xmlns:svg="http://www.w3.org/2000/svg"
   xmlns="http://www.w3.org/2000/svg"
   xmlns:xlink="http://www.w3.org/1999/xlink"
   version="1.1"
   viewBox="0 0 400 400"
   xml:space="preserve"
   id="svg5"
   width="400"
   height="400"><metadata
     id="metadata11"><rdf:RDF><cc:Work
         rdf:about=""><dc:format>image/svg+xml</dc:format><dc:type
           rdf:resource="http://purl.org/dc/dcmitype/StillImage" /><dc:title></dc:title></cc:Work></rdf:RDF></metadata><defs
     id="defs9"><linearGradient
       id="linearGradient868"><stop
         style="stop-color:#ffffff;stop-opacity:1"
         offset="0"
         id="stop864" /><stop
         style="stop-color:#f9f9f9;stop-opacity:1"
         offset="1"
         id="stop866" /></linearGradient><linearGradient
       xlink:href="#linearGradient868"
       id="linearGradient870"
       x1="16.993623"
       y1="200.04394"
       x2="197.69531"
       y2="200.04394"
       gradientUnits="userSpaceOnUse" /></defs><path
     d="M 377.55895,172.04672 218.83773,43.14409 c -10.68317,-8.158395 -25.94482,-8.158395 -38.15415,0 L 23.488532,172.04672 c -12.209325,9.79007 -6.104663,27.73856 9.156993,27.73856 H 47.90718 v 99.5324 c 0,34.26525 27.47098,63.63549 61.04662,63.63549 h 30.52331 c 9.15699,0 15.26165,-6.52672 15.26165,-16.3168 v -79.95226 c 0,-17.94848 13.7355,-34.26527 30.52332,-34.26527 h 30.52331 c 16.78781,0 30.5233,16.31679 30.5233,34.26527 v 79.95226 c 0,8.15838 6.10467,16.3168 15.26165,16.3168 h 30.52331 c 33.57565,0 61.04664,-29.37024 61.04664,-63.63549 v -99.5324 h 15.26165 c 13.73551,0 19.84016,-17.94849 9.15701,-27.73856 z"
     id="home"
     style="fill:#ffffff;stroke:#f2f2f2;stroke-width:5;stroke-miterlimit:4;stroke-dasharray:none;stroke-opacity:1" /><path
     id="rect859"
     style="fill:url(#linearGradient870);stroke:none;stroke-width:4.60978;stroke-linecap:round;stroke-linejoin:round;stroke-miterlimit:4;stroke-dasharray:none;stroke-opacity:1;fill-opacity:1"
     d="M 197.69531 37.134766 C 191.86578 37.600037 185.98672 39.600928 180.68359 43.144531 L 23.488281 172.04688 C 11.278956 181.83695 17.384828 199.78516 32.646484 199.78516 L 47.90625 199.78516 L 47.90625 299.31836 C 47.90625 333.58361 75.377485 362.95312 108.95312 362.95312 L 139.47656 362.95312 C 148.63355 362.95312 154.73828 356.4268 154.73828 346.63672 L 154.73828 266.68359 C 154.73828 248.73511 168.4739 232.41797 185.26172 232.41797 L 197.69531 232.41797 L 197.69531 37.134766 z " /></svg>
