<?xml version="1.0" encoding="UTF-8" standalone="no"?>
<svg
   xmlns:dc="http://purl.org/dc/elements/1.1/"
   xmlns:cc="http://creativecommons.org/ns#"
   xmlns:rdf="http://www.w3.org/1999/02/22-rdf-syntax-ns#"
   xmlns:svg="http://www.w3.org/2000/svg"
   xmlns="http://www.w3.org/2000/svg"
   data-name="Layer 1"
   id="Layer_1"
   viewBox="0 0 24 24"
   version="1.1"
   width="240"
   height="240">
  <metadata
     id="metadata11">
    <rdf:RDF>
      <cc:Work
         rdf:about="">
        <dc:format>image/svg+xml</dc:format>
        <dc:type
           rdf:resource="http://purl.org/dc/dcmitype/StillImage" />
        <dc:title></dc:title>
      </cc:Work>
    </rdf:RDF>
  </metadata>
  <defs
     id="defs9" />
  <path
     d="M 19,6.76 V 2 H 6 V 6.76 A 4,4 0 0 0 7.17,9.59 L 9.59,12 7.17,14.41 A 4.06,4.06 0 0 0 6,17.24 V 22 H 19 V 17.24 A 4.06,4.06 0 0 0 17.83,14.41 L 15.41,12 17.83,9.59 A 4,4 0 0 0 19,6.76 Z m -2,0 a 2,2 0 0 1 -0.59,1.41 l -2.76,2.77 a 1.5,1.5 0 0 0 0,2.12 l 2.76,2.77 A 2,2 0 0 1 17,17.24 V 20 H 8 v -2.76 a 2,2 0 0 1 0.59,-1.41 l 2.76,-2.77 a 1.5,1.5 0 0 0 0,-2.12 L 8.59,8.17 A 2,2 0 0 1 8,6.76 V 4 h 9 z"
     id="path4"
     style="fill:#e95420;fill-opacity:1" />
</svg>
