<?xml version="1.0" encoding="UTF-8" standalone="no"?>
<svg
   xmlns:dc="http://purl.org/dc/elements/1.1/"
   xmlns:cc="http://creativecommons.org/ns#"
   xmlns:rdf="http://www.w3.org/1999/02/22-rdf-syntax-ns#"
   xmlns:svg="http://www.w3.org/2000/svg"
   xmlns="http://www.w3.org/2000/svg"
   style="enable-background:new 0 0 512 512;"
   version="1.1"
   viewBox="0 0 512 512"
   xml:space="preserve"
   id="svg22"><metadata
     id="metadata28"><rdf:RDF><cc:Work
         rdf:about=""><dc:format>image/svg+xml</dc:format><dc:type
           rdf:resource="http://purl.org/dc/dcmitype/StillImage" /><dc:title></dc:title></cc:Work></rdf:RDF></metadata><defs
     id="defs26" /><g
     id="settings"
     transform="matrix(1.6552302,0,0,1.6552302,-167.73892,-167.73892)"
     style="fill:#808080"><path
       id="circle4"
       style="fill:#808080"
       d="m 244.06055,123.41797 c -9.619,0 -17.41602,7.79606 -17.41602,17.41406 v 10.28906 a 104.941,104.941 0 0 0 -23.76367,10.24805 l -7.56055,-7.56055 c -6.801,-6.801 -17.8279,-6.801 -24.6289,0 l -16.88282,16.88282 c -6.801,6.802 -6.801,17.82986 0,24.63086 l 8.76368,8.76367 a 104.941,104.941 0 0 0 -8.43555,22.55859 h -13.30469 c -9.619,0 -17.41406,7.79802 -17.41406,17.41602 v 23.8789 c 0,9.619 7.79606,17.41602 17.41406,17.41602 h 15.71289 a 104.941,104.941 0 0 0 8.95117,19.63281 l -11.68945,11.68945 c -6.801,6.802 -6.801,17.82986 0,24.63086 l 16.88477,16.88282 c 6.802,6.801 17.8279,6.801 24.6289,0 l 12.89258,-12.89063 a 104.941,104.941 0 0 0 18.43164,7.32227 v 18.54492 c 0,9.619 7.79702,17.41406 17.41602,17.41406 h 23.87695 c 9.619,0 17.41602,-7.79606 17.41602,-17.41406 V 352.625 a 104.941,104.941 0 0 0 18.43359,-7.32227 l 12.89062,12.89063 c 6.802,6.801 17.82986,6.801 24.63086,0 l 16.88282,-16.88477 c 6.801,-6.802 6.801,-17.8279 0,-24.6289 l -11.68946,-11.68946 a 104.941,104.941 0 0 0 8.95313,-19.63476 h 15.71289 c 9.618,0 17.41406,-7.79802 17.41406,-17.41602 v -23.8789 c 0,-9.619 -7.79606,-17.41602 -17.41406,-17.41602 h -13.30469 a 104.941,104.941 0 0 0 -8.43555,-22.55859 l 8.76368,-8.76367 c 6.802,-6.801 6.802,-17.82886 0,-24.63086 l -16.88282,-16.88282 c -6.802,-6.801 -17.82986,-6.801 -24.63086,0 l -7.56054,7.56055 a 104.941,104.941 0 0 0 -23.76367,-10.24805 v -10.28906 c 0,-9.618 -7.79702,-17.41406 -17.41602,-17.41406 z M 256,194.24023 A 57.632,57.632 0 0 1 313.63281,251.87305 57.632,57.632 0 0 1 256,309.50586 57.632,57.632 0 0 1 198.36719,251.87305 57.632,57.632 0 0 1 256,194.24023 Z" /></g></svg>
